<svg width="51" height="12" viewBox="0 0 51 12" fill="none" xmlns="http://www.w3.org/2000/svg">
<path d="M9.21777 1.56566C6.99256 -0.566062 3.46232 -0.489297 1.33159 1.73592L1.17412 1.89929C0.64857 2.44846 0.257854 3.07735 0 3.74462L8.13617 10.4951C8.52787 10.252 8.89792 9.96361 9.23057 9.6162L9.38803 9.45184C12.4724 6.23163 10.447 2.74273 9.21777 1.56566Z" fill="#863784"/>
<path d="M17.9674 0C14.8545 0 12.3311 2.52342 12.3311 5.63636C12.3311 8.74931 14.8545 11.2727 17.9674 11.2727C21.0804 11.2727 23.6038 8.74931 23.6038 5.63636C23.6038 2.52342 21.0804 0 17.9674 0ZM19.86 6.44536L21.2526 8.72962C21.1857 8.80048 21.1168 8.86938 21.0459 8.9363L18.7616 7.54369L18.1318 10.1439C18.0835 10.1458 18.0343 10.1478 17.9861 10.1478C17.9379 10.1478 17.8887 10.1458 17.8405 10.1439L17.2106 7.54369L14.9263 8.9363C14.8555 8.86938 14.7866 8.80048 14.7196 8.72962L16.1123 6.44536L13.5121 5.81548C13.5101 5.76726 13.5081 5.71805 13.5081 5.66983C13.5081 5.6216 13.5101 5.57239 13.5121 5.52417L16.1123 4.8943L14.7196 2.61003C14.7866 2.53917 14.8555 2.47028 14.9263 2.40335L17.2106 3.79596L17.8405 1.19577C17.8887 1.1938 17.9379 1.19183 17.9861 1.19183C18.0343 1.19183 18.0835 1.1938 18.1318 1.19577L18.7616 3.79596L21.0459 2.40335C21.1168 2.47028 21.1857 2.53917 21.2526 2.61003L19.86 4.8943L22.4602 5.52417C22.4621 5.57239 22.4641 5.6216 22.4641 5.66983C22.4641 5.71805 22.4621 5.76726 22.4602 5.81548L19.86 6.44536Z" fill="#863784"/>
<path d="M26.9077 6.8106H28.1507C28.197 7.24363 28.4174 7.49165 28.9981 7.49165C29.5138 7.49165 29.753 7.29875 29.753 6.96708C29.753 6.63542 29.4676 6.49763 28.7767 6.39626C27.4962 6.20336 26.9992 5.82544 26.9992 4.8954C26.9992 3.89154 27.9204 3.39453 28.9056 3.39453C29.44 3.39453 29.8907 3.50476 30.25 3.7262C30.6181 3.94764 30.8296 4.33343 30.8946 4.88654H29.6703C29.5965 4.4909 29.3662 4.30686 28.9154 4.30686C28.4647 4.30686 28.2344 4.5096 28.2344 4.80387C28.2344 5.09814 28.4647 5.22706 29.1644 5.32843C29.7628 5.4111 30.2234 5.55873 30.5462 5.76147C30.869 5.96421 31.0344 6.32343 31.0344 6.83914C31.0344 7.87055 30.2697 8.42268 29.0089 8.42268C27.7482 8.42268 26.955 7.843 26.9097 6.8106H26.9077Z" fill="#863784"/>
<path d="M31.5122 8.32229V3.50574H32.8379V4.24191C33.0869 3.79115 33.6114 3.39453 34.3201 3.39453C34.946 3.39453 35.4341 3.67108 35.6644 4.23206C36.0424 3.64254 36.687 3.39453 37.2854 3.39453C37.7273 3.39453 38.1052 3.54216 38.4093 3.83643C38.7134 4.13069 38.8699 4.60113 38.8699 5.23592V8.32131H37.5442V5.38355C37.5442 4.76647 37.2677 4.48992 36.7795 4.48992C36.2914 4.48992 35.8495 4.82158 35.8495 5.47507V8.32032H34.5326V5.38256C34.5326 4.76549 34.2561 4.48893 33.7679 4.48893C33.2798 4.48893 32.8379 4.8206 32.8379 5.47409V8.31934H31.5122V8.32229Z" fill="#863784"/>
<path d="M39.3286 6.98578C39.3286 5.853 40.36 5.43866 41.8333 5.43866H42.3766V5.24576C42.3766 4.6838 42.1926 4.36197 41.5942 4.36197C41.0696 4.36197 40.8206 4.62869 40.7744 5.04302H39.5127C39.5865 3.90138 40.5067 3.39453 41.6769 3.39453C42.2664 3.39453 42.7447 3.53232 43.1226 3.80001C43.5005 4.06672 43.6934 4.52731 43.6934 5.18179V8.32229H42.3953V7.74261C42.1286 8.12053 41.6857 8.42366 40.9407 8.42366C40.0746 8.42366 39.3286 7.99062 39.3286 6.98677V6.98578ZM42.3766 6.6364V6.23092H41.8609C41.0873 6.23092 40.6366 6.39626 40.6366 6.91197C40.6366 7.25249 40.8482 7.49165 41.3363 7.49165C41.9258 7.49165 42.3766 7.15998 42.3766 6.63542V6.6364Z" fill="#863784"/>
<path d="M44.4673 8.32005V3.5035H45.793V4.42469C46.0971 3.7712 46.5852 3.43953 47.3588 3.42969V4.6727C46.3736 4.6727 45.793 4.98567 45.793 5.90685V8.32005H44.4673Z" fill="#863784"/>
<path d="M48.1137 6.89363V4.45386H47.4966V3.50512H48.1137V2.46484H49.4393V3.50512H50.4521V4.45386H49.4393V6.77454C49.4393 7.15246 49.6322 7.34536 49.9737 7.34536C50.1666 7.34536 50.333 7.30796 50.4806 7.26269V8.29411C50.2877 8.34036 50.0298 8.41417 49.6608 8.41417C48.6668 8.41417 48.1137 7.88961 48.1137 6.89461V6.89363Z" fill="#863784"/>
</svg>
