<svg width="50" height="11" viewBox="0 0 50 11" fill="none" xmlns="http://www.w3.org/2000/svg">
<path d="M36.3456 1.46954C34.2586 -0.529921 30.9461 -0.458212 28.9475 1.62972L28.7995 1.78338C28.3059 2.29838 27.9399 2.88882 27.6978 3.51464L35.3305 9.84736C35.6975 9.61919 36.0458 9.34912 36.3577 9.02317L36.5058 8.86858C39.3993 5.8475 37.4995 2.57497 36.3456 1.47047V1.46954Z" fill="#863784"/>
<path d="M44.5549 0C41.6344 0 39.2671 2.36732 39.2671 5.28782C39.2671 8.20832 41.6344 10.5756 44.5549 10.5756C47.4754 10.5756 49.8427 8.20832 49.8427 5.28782C49.8427 2.36732 47.4754 0 44.5549 0ZM46.3299 6.04588L47.6365 8.18876C47.5741 8.25582 47.5099 8.32008 47.4428 8.38247L45.2999 7.07588L44.7095 9.51491C44.6639 9.51677 44.6182 9.51864 44.5726 9.51864C44.527 9.51864 44.4813 9.51677 44.4357 9.51491L43.8453 7.07588L41.7024 8.38247C41.6353 8.32008 41.5711 8.25582 41.5087 8.18876L42.8153 6.04588L40.3762 5.45545C40.3744 5.40982 40.3725 5.36419 40.3725 5.31855C40.3725 5.27292 40.3744 5.22729 40.3762 5.18165L42.8153 4.59122L41.5087 2.44834C41.5711 2.38129 41.6353 2.31703 41.7024 2.25463L43.8453 3.56122L44.4357 1.1222C44.4813 1.12033 44.527 1.11847 44.5726 1.11847C44.6182 1.11847 44.6639 1.12033 44.7095 1.1222L45.2999 3.56122L47.4428 2.25463C47.5099 2.31703 47.5741 2.38129 47.6365 2.44834L46.3299 4.59122L48.769 5.18165C48.7708 5.22729 48.7727 5.27292 48.7727 5.31855C48.7727 5.36419 48.7708 5.40982 48.769 5.45545L46.3299 6.04588Z" fill="#863784"/>
<path d="M8.97909 5.5684L8.82822 4.68555L7.85503 4.84573L8.0655 6.11972C8.09903 6.31343 8.12604 6.50248 8.14559 6.68687C8.16608 6.87127 8.1754 7.04635 8.1754 7.21398C8.18191 7.76902 8.04781 8.19276 7.77401 8.48332C7.49928 8.77388 7.04202 8.92009 6.39944 8.92009H6.0083V10.2341H6.40968C6.87812 10.2341 7.28416 10.1587 7.62873 10.0088C7.97331 9.85789 8.25735 9.64742 8.48179 9.37642C8.70529 9.10541 8.87106 8.78412 8.97816 8.41347C9.08526 8.04189 9.13834 7.63212 9.13834 7.18418C9.13834 6.9765 9.1253 6.73623 9.0983 6.4615C9.07129 6.18771 9.03124 5.88969 8.97816 5.5684H8.97909Z" fill="#863784"/>
<path d="M24.5152 4.89569L24.4453 4.38348L23.4619 4.53435L23.5522 5.05587C23.6193 5.45073 23.6528 5.75526 23.6528 5.96853C23.6528 6.39692 23.4787 6.61111 23.1313 6.61111H23.0009C22.8137 6.61111 22.6694 6.54406 22.5697 6.41089C22.4692 6.27678 22.4189 6.05979 22.4189 5.75899V5.0866H21.4354V5.75433C21.4354 6.08028 21.3684 6.30751 21.2352 6.43696C21.1011 6.56641 20.8869 6.6316 20.5926 6.6316C20.4054 6.6316 20.2183 6.60645 20.0311 6.55617C19.8439 6.50588 19.6567 6.43417 19.4695 6.34011L19.8904 5.50754L19.0178 5.0866L18.6164 5.90892C18.5624 6.02254 18.5047 6.11846 18.4404 6.19483C18.3771 6.27212 18.3035 6.33359 18.2197 6.38015C18.1359 6.42672 18.0372 6.46024 17.9236 6.48073C17.8128 6.50029 17.6852 6.5096 17.5427 6.51053C17.3257 6.5096 17.1627 6.46863 17.0538 6.38574C16.9439 6.30193 16.8414 6.13336 16.7474 5.87912L15.9744 3.81261H14.8103L14.2087 4.17395C13.2653 4.72899 12.7941 5.39113 12.7941 6.16037C12.7941 6.20693 12.7959 6.24977 12.7987 6.29168C12.7997 6.3131 12.8052 6.37922 12.8201 6.46863C12.7345 6.48446 12.646 6.4975 12.5529 6.50215C12.4253 6.50867 12.2651 6.5124 12.0714 6.5124H11.7603C11.4595 6.5124 11.2472 6.46211 11.1234 6.36153C10.9995 6.26095 10.938 6.06724 10.938 5.77948V0.400391H9.86426V5.91917C9.86426 6.6018 10.0198 7.08979 10.3308 7.38408C10.6419 7.67836 11.1289 7.8255 11.7911 7.8255H11.8013C12.3638 7.8255 12.7354 7.53867 12.9217 6.97152H12.9868C13.1107 7.21179 13.297 7.41201 13.5521 7.56474C13.8427 7.73889 14.2227 7.8255 14.6911 7.8255H14.9397C14.9509 7.8255 14.9621 7.8255 14.9733 7.8255H14.9835C15.4818 7.8255 15.8301 7.60013 16.0331 7.15498H16.0871C16.237 7.37197 16.4074 7.53587 16.6021 7.64018C16.833 7.76404 17.0463 7.81898 17.4477 7.81898C17.8491 7.81898 17.8835 7.79384 18.1443 7.72958C18.405 7.66625 18.636 7.53029 18.8372 7.32354L19.0774 7.46417C19.3652 7.63832 19.6092 7.76218 19.8104 7.83575C20.0106 7.90932 20.208 7.94657 20.4026 7.94657C20.7035 7.94657 20.9474 7.8404 21.1356 7.62807C21.3228 7.41574 21.4848 7.09352 21.5388 6.66233H21.5798C21.6599 7.09352 21.7968 7.41574 22.0343 7.62807C22.2717 7.8404 22.6182 7.94657 23.0726 7.94657C24.0961 7.94657 24.6074 7.28815 24.6074 5.96946C24.6074 5.65468 24.5776 5.29707 24.5171 4.89569H24.5152ZM13.852 5.61836C13.9954 5.49171 14.2012 5.37064 14.4694 5.25703L15.1716 4.94598L15.7593 6.49936C15.7509 6.49936 15.7434 6.50122 15.7351 6.50122C15.6261 6.50681 15.4911 6.51053 15.3337 6.51053H14.3996C14.1649 6.51053 13.9796 6.47421 13.8427 6.39971C13.7058 6.32614 13.6369 6.20228 13.6369 6.02813C13.6369 5.88099 13.7086 5.74409 13.8529 5.6165L13.852 5.61836Z" fill="#863784"/>
<path d="M2.75416 4.16457C3.09516 4.16457 3.3716 3.88813 3.3716 3.54713C3.3716 3.20612 3.09516 2.92969 2.75416 2.92969C2.41316 2.92969 2.13672 3.20612 2.13672 3.54713C2.13672 3.88813 2.41316 4.16457 2.75416 4.16457Z" fill="#863784"/>
<path d="M4.2483 4.16457C4.5893 4.16457 4.86574 3.88813 4.86574 3.54713C4.86574 3.20612 4.5893 2.92969 4.2483 2.92969C3.9073 2.92969 3.63086 3.20612 3.63086 3.54713C3.63086 3.88813 3.9073 4.16457 4.2483 4.16457Z" fill="#863784"/>
<path d="M6.80209 6.71303C6.93619 6.42526 7.00231 6.07417 7.00231 5.65975C7.00231 5.39247 6.96692 5.10284 6.89708 4.7918C6.82723 4.48075 6.72479 4.16504 6.59162 3.84375L5.72832 4.09426C5.84845 4.34199 5.94251 4.57574 6.00956 4.79645C6.07662 5.01717 6.11014 5.2146 6.11014 5.38875C6.11014 5.58897 6.06823 5.75847 5.98442 5.89536C5.9006 6.03226 5.76557 6.14309 5.57838 6.2269C5.39119 6.31072 5.14906 6.37218 4.85105 6.41223C4.55304 6.45227 4.19077 6.47276 3.76238 6.47276H3.23993C2.81154 6.47276 2.44927 6.45227 2.15126 6.41223C1.85325 6.37218 1.61112 6.31072 1.42393 6.2269C1.23674 6.14309 1.10078 6.03319 1.01789 5.89536C0.934076 5.75847 0.892168 5.58897 0.892168 5.38875C0.892168 5.2146 0.925694 5.01717 0.992747 4.79645C1.0598 4.57574 1.15293 4.34199 1.27399 4.09426L0.410695 3.84375C0.276591 4.16504 0.175081 4.48075 0.105235 4.7918C0.0353887 5.10284 0 5.39247 0 5.65975C0 6.07417 0.0670523 6.4262 0.200226 6.71303C0.33433 7.0008 0.586708 7.28297 0.904275 7.43477C1.27772 7.61358 2.23228 7.79145 3.50162 7.79145C4.77096 7.79145 5.72552 7.61358 6.09897 7.43477C6.41653 7.28297 6.66984 6.99986 6.80302 6.71303H6.80209Z" fill="#863784"/>
</svg>
