<svg width="52" height="11" viewBox="0 0 52 11" fill="none" xmlns="http://www.w3.org/2000/svg">
<g clip-path="url(#clip0_15093_86581)">
<path d="M38.5818 1.77574C36.6801 -0.0463293 33.6618 0.0200079 31.8419 1.92168L31.707 2.06099C31.2581 2.52977 30.9242 3.0671 30.7031 3.6376L37.6575 9.40674C37.9914 9.19888 38.3098 8.95343 38.5928 8.65492L38.7277 8.5134C41.3635 5.7604 39.6321 2.77964 38.5818 1.77352V1.77574Z" fill="#863784"/>
<path d="M46.0605 0.435547C43.4004 0.435547 41.2422 2.59151 41.2422 5.25385C41.2422 7.91618 43.3982 10.0721 46.0605 10.0721C48.7228 10.0721 50.8788 7.91618 50.8788 5.25385C50.8788 2.59151 48.7206 0.435547 46.0605 0.435547ZM47.6769 5.94375L48.8666 7.89628C48.8091 7.95599 48.7516 8.01569 48.6897 8.07318L46.7371 6.88353L46.1998 9.10583C46.1578 9.10583 46.118 9.10804 46.076 9.10804C46.034 9.10804 45.9919 9.10804 45.9521 9.10583L45.4148 6.88353L43.4623 8.07318C43.4026 8.01569 43.3429 7.9582 43.2854 7.89628L44.475 5.94375L42.2527 5.40642C42.2527 5.36441 42.2505 5.32461 42.2505 5.28259C42.2505 5.24058 42.2505 5.19857 42.2527 5.15876L44.475 4.62143L43.2854 2.6689C43.3429 2.6092 43.4004 2.5495 43.4623 2.492L45.4148 3.68165L45.9521 1.45935C45.9942 1.45935 46.034 1.45714 46.076 1.45714C46.118 1.45714 46.16 1.45714 46.1998 1.45935L46.7371 3.68165L48.6897 2.492C48.7494 2.5495 48.8091 2.60699 48.8666 2.6689L47.6769 4.62143L49.8992 5.15876C49.8992 5.20078 49.9014 5.24058 49.9014 5.28259C49.9014 5.32461 49.9014 5.36662 49.8992 5.40642L47.6769 5.94375Z" fill="#863784"/>
<path d="M13.6497 5.50802L13.5126 4.70312L12.6259 4.84907L12.8182 6.00997C12.8492 6.18687 12.8735 6.35935 12.8912 6.5274C12.9089 6.69546 12.9177 6.85467 12.9177 7.00724C12.9244 7.51362 12.8028 7.89837 12.5529 8.16372C12.303 8.42907 11.8851 8.56175 11.3013 8.56175H10.9453V9.76024H11.3102C11.7369 9.76024 12.1062 9.69169 12.4202 9.55459C12.7342 9.4175 12.9929 9.22512 13.1964 8.97967C13.3998 8.73201 13.5502 8.44013 13.6497 8.10181C13.747 7.76349 13.7956 7.38979 13.7956 6.98292C13.7956 6.79496 13.7823 6.57384 13.758 6.32397C13.7337 6.0741 13.6961 5.80211 13.6475 5.51023L13.6497 5.50802Z" fill="#863784"/>
<path d="M27.8039 4.89601L27.7397 4.42943L26.8442 4.56653L26.926 5.04195C26.9879 5.40238 27.0167 5.67879 27.0167 5.87337C27.0167 6.26255 26.8575 6.45935 26.5412 6.45935H26.4218C26.2516 6.45935 26.1211 6.39744 26.0282 6.27582C25.9376 6.1542 25.8911 5.95519 25.8911 5.681V5.06848H24.9956V5.67657C24.9956 5.97288 24.9337 6.18074 24.8121 6.29793C24.6904 6.41513 24.4958 6.47483 24.2261 6.47483C24.0558 6.47483 23.8855 6.45272 23.7131 6.40628C23.5428 6.35985 23.3725 6.29572 23.2001 6.20948L23.5848 5.45103L22.7888 5.06627L22.4239 5.81588C22.3753 5.91981 22.3222 6.00605 22.2647 6.07681C22.2072 6.14757 22.1387 6.20285 22.0635 6.24486C21.9861 6.28688 21.8976 6.31783 21.7937 6.33552C21.692 6.35321 21.577 6.36206 21.4465 6.36206C21.2497 6.36206 21.0994 6.32447 20.9999 6.24708C20.9004 6.17189 20.8053 6.01711 20.7213 5.78493L20.0181 3.90095H18.9567L18.4083 4.23042C17.5481 4.7368 17.1191 5.34047 17.1191 6.04143C17.1191 6.08344 17.1191 6.12325 17.1236 6.16084C17.1236 6.18074 17.1302 6.24044 17.1435 6.32226C17.0661 6.33774 16.9843 6.34879 16.9002 6.35321C16.7852 6.35985 16.6371 6.36206 16.4624 6.36206H16.1794C15.9052 6.36206 15.7106 6.31562 15.6 6.22496C15.4872 6.1343 15.432 5.9574 15.432 5.69426V0.800781H14.4546V5.82915C14.4546 6.45051 14.5961 6.89497 14.8791 7.16474C15.1622 7.4323 15.6066 7.56719 16.2081 7.56719H16.2169C16.73 7.56719 17.0683 7.30626 17.2385 6.78883H17.2982C17.411 7.00774 17.5813 7.18907 17.8135 7.32837C18.0788 7.48758 18.4238 7.56498 18.8505 7.56498H19.0761C19.0761 7.56498 19.096 7.56498 19.107 7.56498H19.1159C19.5692 7.56498 19.8876 7.35933 20.0734 6.95467H20.122C20.2591 7.15147 20.4139 7.30184 20.5908 7.39692C20.8009 7.5097 20.9954 7.56055 21.3603 7.56055C21.7252 7.56055 21.7583 7.53844 21.9949 7.47874C22.2337 7.42125 22.4438 7.29742 22.6251 7.10946L22.844 7.23771C23.1072 7.39692 23.3283 7.5097 23.5118 7.57603C23.6954 7.64237 23.8745 7.67554 24.0514 7.67554C24.3256 7.67554 24.5489 7.57824 24.7192 7.38587C24.8894 7.19349 25.0376 6.89939 25.0862 6.50579H25.1238C25.1968 6.89939 25.3206 7.19128 25.5373 7.38587C25.754 7.57824 26.068 7.67554 26.4838 7.67554C27.4169 7.67554 27.8813 7.07629 27.8813 5.87559C27.8813 5.58812 27.8547 5.26307 27.7994 4.89822L27.8039 4.89601ZM18.0899 5.55496C18.2203 5.43997 18.4083 5.32941 18.6515 5.22548L19.2906 4.94244L19.8257 6.35764C19.8257 6.35764 19.8102 6.35764 19.8036 6.35764C19.7041 6.36206 19.5825 6.36648 19.4387 6.36648H18.5874C18.3729 6.36648 18.2049 6.33331 18.081 6.26698C17.955 6.20064 17.8931 6.08787 17.8931 5.92866C17.8931 5.79377 17.9594 5.66994 18.0899 5.55274V5.55496Z" fill="#863784"/>
<path d="M7.97767 4.22878C8.28787 4.22878 8.53933 3.97732 8.53933 3.66712C8.53933 3.35693 8.28787 3.10547 7.97767 3.10547C7.66748 3.10547 7.41602 3.35693 7.41602 3.66712C7.41602 3.97732 7.66748 4.22878 7.97767 4.22878Z" fill="#863784"/>
<path d="M9.33998 4.22878C9.65017 4.22878 9.90163 3.97732 9.90163 3.66712C9.90163 3.35693 9.65017 3.10547 9.33998 3.10547C9.02978 3.10547 8.77832 3.35693 8.77832 3.66712C8.77832 3.97732 9.02978 4.22878 9.33998 4.22878Z" fill="#863784"/>
<path d="M11.6661 6.55145C11.7878 6.29052 11.8497 5.96989 11.8497 5.59177C11.8497 5.34853 11.8187 5.08539 11.7546 4.80014C11.6905 4.5171 11.5976 4.22964 11.476 3.93555L10.6888 4.16331C10.7993 4.38885 10.8834 4.60113 10.9453 4.80235C11.0072 5.00358 11.0359 5.18269 11.0359 5.3419C11.0359 5.52543 10.9984 5.67801 10.921 5.80405C10.8458 5.93009 10.7219 6.0296 10.5517 6.10478C10.3814 6.18217 10.1603 6.23745 9.88831 6.27283C9.61633 6.31042 9.28685 6.32811 8.89546 6.32811H8.42004C8.03086 6.32811 7.69918 6.31042 7.42719 6.27283C7.15521 6.23524 6.93409 6.17996 6.76382 6.10478C6.59355 6.0296 6.46973 5.92788 6.39454 5.80405C6.31715 5.68022 6.27956 5.52543 6.27956 5.3419C6.27956 5.18269 6.31052 5.00358 6.37022 4.80235C6.42992 4.60113 6.51616 4.38885 6.62672 4.16331L5.83952 3.93555C5.7179 4.22743 5.62503 4.5171 5.5609 4.80014C5.49678 5.08318 5.46582 5.34632 5.46582 5.59177C5.46582 5.96989 5.52552 6.29052 5.64935 6.55145C5.77097 6.81459 6.00094 7.07109 6.29061 7.2104C6.63115 7.37403 7.50017 7.53545 8.65665 7.53545C9.81313 7.53545 10.6821 7.37403 11.0227 7.2104C11.3123 7.07109 11.5423 6.81459 11.6639 6.55145H11.6661Z" fill="#863784"/>
<path d="M2.71143 7.60776L2.71143 3.92383H1.74511L1.74511 7.60776H2.71143Z" fill="#863784"/>
<path d="M0.386868 6.25L4.0708 6.25V5.28369H0.386868V6.25Z" fill="#863784"/>
</g>
<defs>
<clipPath id="clip0_15093_86581">
<rect width="51.25" height="10.4017" fill="white"/>
</clipPath>
</defs>
</svg>
