<svg width="51" height="11" viewBox="0 0 51 11" fill="none" xmlns="http://www.w3.org/2000/svg">
<g clip-path="url(#clip0_15093_86595)">
<path d="M8.64225 1.73842C6.62309 -0.196205 3.42063 -0.125769 1.486 1.89338L1.34278 2.0413C0.866166 2.53904 0.51164 3.10957 0.276855 3.71531L7.66084 9.84086C8.01537 9.62016 8.35346 9.35955 8.65399 9.04259L8.7972 8.89232C11.5958 5.96925 9.75747 2.80435 8.64225 1.73608V1.73842Z" fill="#863784"/>
<path d="M16.5828 0.318359C13.7583 0.318359 11.4668 2.60751 11.4668 5.43432C11.4668 8.26114 13.756 10.5503 16.5828 10.5503C19.4096 10.5503 21.6987 8.26114 21.6987 5.43432C21.6987 2.60751 19.4072 0.318359 16.5828 0.318359ZM18.299 6.16685L19.5622 8.24001C19.5011 8.3034 19.4401 8.36679 19.3744 8.42783L17.3012 7.16469L16.7307 9.52428C16.6861 9.52428 16.6438 9.52663 16.5992 9.52663C16.5546 9.52663 16.51 9.52663 16.4677 9.52428L15.8972 7.16469L13.824 8.42783C13.7606 8.36679 13.6973 8.30575 13.6362 8.24001L14.8994 6.16685L12.5398 5.59633C12.5398 5.55172 12.5374 5.50946 12.5374 5.46485C12.5374 5.42024 12.5374 5.37563 12.5398 5.33337L14.8994 4.76284L13.6362 2.68969C13.6973 2.6263 13.7583 2.5629 13.824 2.50186L15.8972 3.765L16.4677 1.40541C16.5123 1.40541 16.5546 1.40307 16.5992 1.40307C16.6438 1.40307 16.6884 1.40307 16.7307 1.40541L17.3012 3.765L19.3744 2.50186C19.4377 2.5629 19.5011 2.62395 19.5622 2.68969L18.299 4.76284L20.6586 5.33337C20.6586 5.37798 20.661 5.42024 20.661 5.46485C20.661 5.50946 20.661 5.55407 20.6586 5.59633L18.299 6.16685Z" fill="#863784"/>
<path d="M24.6968 6.50385H25.8261C25.8684 6.89595 26.0679 7.12134 26.5938 7.12134C27.0611 7.12134 27.2794 6.94525 27.2794 6.64473C27.2794 6.3442 27.0211 6.21742 26.3943 6.12585C25.2321 5.94976 24.7813 5.60698 24.7813 4.7641C24.7813 3.85313 25.6171 3.40234 26.5117 3.40234C26.9953 3.40234 27.4062 3.5033 27.7325 3.70287C28.0659 3.90244 28.2585 4.25461 28.3172 4.75471H27.2066C27.1409 4.39548 26.9319 4.22879 26.5211 4.22879C26.1102 4.22879 25.9036 4.41192 25.9036 4.67957C25.9036 4.94723 26.1125 5.06462 26.7464 5.15619C27.2888 5.23132 27.7067 5.36515 28.0002 5.54828C28.2937 5.73141 28.4439 6.05776 28.4439 6.52498C28.4439 7.46178 27.7513 7.96187 26.6056 7.96187C25.4598 7.96187 24.7414 7.43595 24.7015 6.49916L24.6968 6.50385Z" fill="#863784"/>
<path d="M28.873 7.8746V3.50291H30.0775V4.17204C30.3029 3.76352 30.7795 3.4043 31.4228 3.4043C31.991 3.4043 32.4347 3.65552 32.6437 4.165C32.9865 3.62969 33.5711 3.4043 34.1134 3.4043C34.5149 3.4043 34.8577 3.53812 35.1324 3.80578C35.4071 4.07343 35.5503 4.4984 35.5503 5.07597V7.8746H34.3459V5.20979C34.3459 4.65101 34.0947 4.39979 33.6533 4.39979C33.2119 4.39979 32.8104 4.70031 32.8104 5.29432V7.87695H31.6153V5.21214C31.6153 4.65335 31.3641 4.40213 30.9227 4.40213C30.4813 4.40213 30.0798 4.70266 30.0798 5.29666V7.8793H28.8754L28.873 7.8746Z" fill="#863784"/>
<path d="M35.9687 6.66351C35.9687 5.63515 36.9054 5.25949 38.2414 5.25949H38.7344V5.0834C38.7344 4.57392 38.5677 4.28044 38.023 4.28044C37.5464 4.28044 37.321 4.52227 37.2788 4.89792H36.133C36.1987 3.86252 37.0346 3.40234 38.0958 3.40234C38.6311 3.40234 39.0655 3.52678 39.4083 3.77096C39.751 4.01278 39.9271 4.4307 39.9271 5.02471V7.875H38.7485V7.34908C38.5067 7.69187 38.1052 7.96656 37.429 7.96656C36.6425 7.96656 35.9663 7.57447 35.9663 6.66351H35.9687ZM38.7344 6.34655V5.97794H38.2672C37.5652 5.97794 37.1567 6.1282 37.1567 6.59542C37.1567 6.90534 37.3492 7.12134 37.7906 7.12134C38.3259 7.12134 38.7344 6.82081 38.7344 6.3442V6.34655Z" fill="#863784"/>
<path d="M40.6318 7.87494V3.50324H41.8363V4.33907C42.111 3.74507 42.5547 3.44454 43.2567 3.4375V4.56682C42.3622 4.56682 41.8363 4.85091 41.8363 5.68674V7.87728H40.6318V7.87494Z" fill="#863784"/>
<path d="M43.9396 6.57811V4.36409H43.3809V3.50243H43.9396V2.55859H45.1441V3.50243H46.0645V4.36409H45.1441V6.47011C45.1441 6.8129 45.3202 6.98899 45.6278 6.98899C45.8038 6.98899 45.9541 6.95612 46.0879 6.91386V7.85065C45.9118 7.89291 45.6794 7.95865 45.3437 7.95865C44.4421 7.95865 43.9396 7.48204 43.9396 6.58046V6.57811Z" fill="#863784"/>
<path d="M49.1714 7.41152V3.5H48.1454V7.41152H49.1714Z" fill="#863784"/>
<path d="M46.7027 5.9707L50.6143 5.9707V4.94469H46.7027V5.9707Z" fill="#863784"/>
</g>
<defs>
<clipPath id="clip0_15093_86595">
<rect width="51" height="10.8729" fill="white"/>
</clipPath>
</defs>
</svg>
