<svg width="48" height="48" viewBox="0 0 48 48" fill="none" xmlns="http://www.w3.org/2000/svg">
<rect width="48" height="48" rx="24" fill="#9B499B"/>
<g clip-path="url(#clip0_13312_5895)">
<path d="M30.75 28.5V18C30.75 17.4033 30.5129 16.831 30.091 16.409C29.669 15.9871 29.0967 15.75 28.5 15.75H15.75" stroke="#FFDD72" stroke-width="1.5" stroke-linecap="round" stroke-linejoin="round"/>
<path d="M21.75 21.75H27.75" stroke="#FFDD72" stroke-width="1.5" stroke-linecap="round" stroke-linejoin="round"/>
<path d="M21.75 24.75H27.75" stroke="#FFDD72" stroke-width="1.5" stroke-linecap="round" stroke-linejoin="round"/>
<path d="M14.25 19.5C14.25 19.5 13.5 18.9375 13.5 18C13.5 17.4033 13.7371 16.831 14.159 16.409C14.581 15.9871 15.1533 15.75 15.75 15.75C16.3467 15.75 16.919 15.9871 17.341 16.409C17.7629 16.831 18 17.4033 18 18V30C18 30.5967 18.2371 31.169 18.659 31.591C19.081 32.0129 19.6533 32.25 20.25 32.25M20.25 32.25C20.8467 32.25 21.419 32.0129 21.841 31.591C22.2629 31.169 22.5 30.5967 22.5 30C22.5 29.0625 21.75 28.5 21.75 28.5H32.25C32.25 28.5 33 29.0625 33 30C33 30.5967 32.7629 31.169 32.341 31.591C31.919 32.0129 31.3467 32.25 30.75 32.25H20.25Z" stroke="#FFDD72" stroke-width="1.5" stroke-linecap="round" stroke-linejoin="round"/>
</g>
<defs>
<clipPath id="clip0_13312_5895">
<rect width="24" height="24" fill="white" transform="translate(12 12)"/>
</clipPath>
</defs>
</svg>
