<svg width="49" height="49" viewBox="0 0 49 49" fill="none" xmlns="http://www.w3.org/2000/svg">
<rect x="0.5" y="0.889648" width="48" height="48" rx="24" fill="#9B499B"/>
<g clip-path="url(#clip0_13207_65210)">
<path d="M32.75 23.3896V17.3896C32.75 17.1907 32.671 17 32.5303 16.8593C32.3897 16.7187 32.1989 16.6396 32 16.6396H17C16.8011 16.6396 16.6103 16.7187 16.4697 16.8593C16.329 17 16.25 17.1907 16.25 17.3896V23.3896C16.25 32.3896 24.5 34.6396 24.5 34.6396C24.5 34.6396 32.75 32.3896 32.75 23.3896Z" stroke="#FFDD72" stroke-width="1.5" stroke-linecap="round" stroke-linejoin="round"/>
<path d="M24.5 26.0146C26.1569 26.0146 27.5 24.6715 27.5 23.0146C27.5 21.3578 26.1569 20.0146 24.5 20.0146C22.8431 20.0146 21.5 21.3578 21.5 23.0146C21.5 24.6715 22.8431 26.0146 24.5 26.0146Z" stroke="#FFDD72" stroke-width="1.5" stroke-linecap="round" stroke-linejoin="round"/>
<path d="M20.75 28.2646C21.1866 27.566 21.7528 26.999 22.4037 26.6085C23.0546 26.218 23.7723 26.0146 24.5 26.0146C25.2277 26.0146 25.9454 26.218 26.5963 26.6085C27.2472 26.999 27.8134 27.566 28.25 28.2646" stroke="#FFDD72" stroke-width="1.5" stroke-linecap="round" stroke-linejoin="round"/>
</g>
<defs>
<clipPath id="clip0_13207_65210">
<rect width="24" height="24" fill="white" transform="translate(12.5 12.8896)"/>
</clipPath>
</defs>
</svg>
