<svg width="49" height="49" viewBox="0 0 49 49" fill="none" xmlns="http://www.w3.org/2000/svg">
<rect x="0.5" y="0.889648" width="48" height="48" rx="24" fill="#9B499B"/>
<path fill-rule="evenodd" clip-rule="evenodd" d="M28.5 18.1396H32.34C33.39 18.1396 34.25 18.9996 34.25 20.0496V21.4696V23.8896V25.8896V29.7296C34.25 30.7796 33.39 31.6396 32.34 31.6396H31.5H28.5H20.5H16.66C15.61 31.6396 14.75 30.7896 14.75 29.7296V26.8896V25.8896V23.8896V21.8896V20.0496C14.75 18.9996 15.6 18.1396 16.66 18.1396H20.5H28.5ZM32.75 29.7296V25.8896V24.6796H16.25V25.8896V26.8896V29.7296C16.25 29.9496 16.43 30.1396 16.66 30.1396H20.5H28.5H31.5H32.34C32.56 30.1396 32.75 29.9596 32.75 29.7296ZM32.75 21.5996V21.4696V20.0496C32.75 19.8296 32.57 19.6396 32.34 19.6396H28.5H20.5H16.66C16.44 19.6396 16.25 19.8196 16.25 20.0496V21.5996H32.75ZM24.5 28.3896H18C17.59 28.3896 17.25 28.0496 17.25 27.6396C17.25 27.2296 17.59 26.8896 18 26.8896H24.5C24.91 26.8896 25.25 27.2296 25.25 27.6396C25.25 28.0496 24.91 28.3896 24.5 28.3896Z" fill="#FFDD72"/>
</svg>
