<svg width="49" height="49" viewBox="0 0 49 49" fill="none" xmlns="http://www.w3.org/2000/svg">
<rect x="0.5" y="0.389648" width="48" height="48" rx="24" fill="#9B499B"/>
<g clip-path="url(#clip0_13207_65245)">
<path d="M17.6056 31.284C16.7431 30.4215 17.315 28.6093 16.8763 27.5481C16.4206 26.4521 14.75 25.5615 14.75 24.3896C14.75 23.2178 16.4206 22.3271 16.8763 21.2312C17.315 20.1709 16.7431 18.3578 17.6056 17.4953C18.4681 16.6328 20.2812 17.2046 21.3416 16.7659C22.4422 16.3103 23.3281 14.6396 24.5 14.6396C25.6719 14.6396 26.5625 16.3103 27.6584 16.7659C28.7197 17.2046 30.5319 16.6328 31.3944 17.4953C32.2569 18.3578 31.685 20.17 32.1238 21.2312C32.5794 22.3318 34.25 23.2178 34.25 24.3896C34.25 25.5615 32.5794 26.4521 32.1238 27.5481C31.685 28.6093 32.2569 30.4215 31.3944 31.284C30.5319 32.1465 28.7197 31.5746 27.6584 32.0134C26.5625 32.469 25.6719 34.1396 24.5 34.1396C23.3281 34.1396 22.4375 32.469 21.3416 32.0134C20.2812 31.5746 18.4681 32.1465 17.6056 31.284Z" stroke="#FFDD72" stroke-width="1.5" stroke-linecap="round" stroke-linejoin="round"/>
<path d="M21.5 22.8896C22.3284 22.8896 23 22.2181 23 21.3896C23 20.5612 22.3284 19.8896 21.5 19.8896C20.6716 19.8896 20 20.5612 20 21.3896C20 22.2181 20.6716 22.8896 21.5 22.8896Z" stroke="#FFDD72" stroke-width="1.5" stroke-linecap="round" stroke-linejoin="round"/>
<path d="M27.5 28.8896C28.3284 28.8896 29 28.2181 29 27.3896C29 26.5612 28.3284 25.8896 27.5 25.8896C26.6716 25.8896 26 26.5612 26 27.3896C26 28.2181 26.6716 28.8896 27.5 28.8896Z" stroke="#FFDD72" stroke-width="1.5" stroke-linecap="round" stroke-linejoin="round"/>
<path d="M20.75 28.1396L28.25 20.6396" stroke="#FFDD72" stroke-width="1.5" stroke-linecap="round" stroke-linejoin="round"/>
</g>
<defs>
<clipPath id="clip0_13207_65245">
<rect width="24" height="24" fill="white" transform="translate(12.5 12.3896)"/>
</clipPath>
</defs>
</svg>
