<svg width="49" height="49" viewBox="0 0 49 49" fill="none" xmlns="http://www.w3.org/2000/svg">
<rect x="0.5" y="0.889648" width="48" height="48" rx="24" fill="#9B499B"/>
<g clip-path="url(#clip0_13207_65218)">
<path d="M32.75 20.3896H16.25C15.8358 20.3896 15.5 20.7254 15.5 21.1396V24.1396C15.5 24.5539 15.8358 24.8896 16.25 24.8896H32.75C33.1642 24.8896 33.5 24.5539 33.5 24.1396V21.1396C33.5 20.7254 33.1642 20.3896 32.75 20.3896Z" stroke="#FFDD72" stroke-width="1.5" stroke-linecap="round" stroke-linejoin="round"/>
<path d="M32 24.8896V31.6396C32 31.8386 31.921 32.0293 31.7803 32.17C31.6397 32.3106 31.4489 32.3896 31.25 32.3896H17.75C17.5511 32.3896 17.3603 32.3106 17.2197 32.17C17.079 32.0293 17 31.8386 17 31.6396V24.8896" stroke="#FFDD72" stroke-width="1.5" stroke-linecap="round" stroke-linejoin="round"/>
<path d="M24.5 20.3896V32.3896" stroke="#FFDD72" stroke-width="1.5" stroke-linecap="round" stroke-linejoin="round"/>
<path d="M29.0741 15.8158C29.9497 16.6915 30.0012 18.1652 29.0741 18.9865C27.4887 20.3899 24.5 20.3899 24.5 20.3899C24.5 20.3899 24.5 17.4012 25.9062 15.8158C26.7247 14.8887 28.1984 14.9402 29.0741 15.8158Z" stroke="#FFDD72" stroke-width="1.5" stroke-linecap="round" stroke-linejoin="round"/>
<path d="M19.9262 15.8158C19.0506 16.6915 18.999 18.1652 19.9262 18.9865C21.5115 20.3899 24.5003 20.3899 24.5003 20.3899C24.5003 20.3899 24.5003 17.4012 23.094 15.8158C22.2756 14.8887 20.8018 14.9402 19.9262 15.8158Z" stroke="#FFDD72" stroke-width="1.5" stroke-linecap="round" stroke-linejoin="round"/>
</g>
<defs>
<clipPath id="clip0_13207_65218">
<rect width="24" height="24" fill="white" transform="translate(12.5 12.8896)"/>
</clipPath>
</defs>
</svg>
