<svg width="36" height="37" viewBox="0 0 36 37" fill="none" xmlns="http://www.w3.org/2000/svg">
<path d="M8.92344 24.705L14.4172 19.2112C14.6797 18.9487 14.9797 18.8144 15.3172 18.8081C15.6547 18.8019 15.9547 18.9315 16.2172 19.197C16.4797 19.4625 16.6141 19.768 16.6203 20.1135C16.6266 20.459 16.4922 20.7645 16.2172 21.03L9.84219 27.3862C9.58869 27.6487 9.29719 27.78 8.96769 27.78C8.63819 27.78 8.34219 27.6487 8.07969 27.3862L4.85469 24.1612C4.59219 23.8987 4.46094 23.6112 4.46094 23.2987C4.46094 22.9862 4.59844 22.6925 4.87344 22.4175C5.14844 22.1425 5.44531 22.005 5.76406 22.005C6.08281 22.005 6.38369 22.1465 6.66669 22.4295L8.92344 24.705ZM8.96094 13.005L14.4172 7.54873C14.6797 7.28623 14.9797 7.14561 15.3172 7.12686C15.6547 7.10811 15.9547 7.23148 16.2172 7.49698C16.4797 7.76248 16.6141 8.06798 16.6203 8.41348C16.6266 8.75898 16.4922 9.06448 16.2172 9.32998L9.84219 15.6862C9.58869 15.9487 9.29719 16.08 8.96769 16.08C8.63819 16.08 8.34219 15.9487 8.07969 15.6862L4.85469 12.4612C4.59219 12.1987 4.46719 11.905 4.47969 11.58C4.49219 11.255 4.63594 10.955 4.91094 10.68C5.18594 10.405 5.48281 10.2675 5.80156 10.2675C6.12031 10.2675 6.41719 10.405 6.69219 10.68L8.96094 13.005ZM21.1297 25.605C20.7847 25.605 20.4891 25.4826 20.2428 25.2379C19.9966 24.9931 19.8734 24.6994 19.8734 24.3566C19.8734 24.0139 19.9966 23.7175 20.2428 23.4675C20.4891 23.2175 20.7847 23.0925 21.1297 23.0925H30.7672C31.1122 23.0925 31.4078 23.2149 31.6541 23.4596C31.9003 23.7044 32.0234 23.9981 32.0234 24.3409C32.0234 24.6836 31.9003 24.98 31.6541 25.23C31.4078 25.48 31.1122 25.605 30.7672 25.605H21.1297ZM21.1297 13.905C20.7847 13.905 20.4891 13.7826 20.2428 13.5379C19.9966 13.2931 19.8734 12.9994 19.8734 12.6566C19.8734 12.3139 19.9966 12.0175 20.2428 11.7675C20.4891 11.5175 20.7847 11.3925 21.1297 11.3925H30.7672C31.1122 11.3925 31.4078 11.5149 31.6541 11.7596C31.9003 12.0044 32.0234 12.2981 32.0234 12.6409C32.0234 12.9836 31.9003 13.28 31.6541 13.53C31.4078 13.78 31.1122 13.905 30.7672 13.905H21.1297Z" fill="#3F2C93"/>
</svg>
