<svg width="36" height="37" viewBox="0 0 36 37" fill="none" xmlns="http://www.w3.org/2000/svg">
<path d="M8.25078 30.7633C7.55978 30.7633 6.96828 30.5173 6.47628 30.0253C5.98428 29.5333 5.73828 28.9418 5.73828 28.2508V8.75078C5.73828 8.05978 5.98428 7.46828 6.47628 6.97628C6.96828 6.48428 7.55978 6.23828 8.25078 6.23828H27.7508C28.4418 6.23828 29.0333 6.48428 29.5253 6.97628C30.0173 7.46828 30.2633 8.05978 30.2633 8.75078V19.307C30.2633 19.652 30.1409 19.9477 29.8962 20.1939C29.6514 20.4402 29.3577 20.5633 29.0149 20.5633C28.6722 20.5633 28.3758 20.4402 28.1258 20.1939C27.8758 19.9477 27.7508 19.652 27.7508 19.307V8.75078H8.25078V28.2508H16.8195C17.1645 28.2508 17.4602 28.3732 17.7064 28.6179C17.9527 28.8627 18.0758 29.1564 18.0758 29.4992C18.0758 29.8419 17.9527 30.1383 17.7064 30.3883C17.4602 30.6383 17.1645 30.7633 16.8195 30.7633H8.25078ZM25.7847 28.9633L31.182 23.6383C31.4363 23.3883 31.7279 23.2633 32.0569 23.2633C32.3862 23.2633 32.682 23.3903 32.9445 23.6443C33.207 23.8983 33.3383 24.194 33.3383 24.5315C33.3383 24.8693 33.207 25.1653 32.9445 25.4195L26.7008 31.6445C26.4383 31.907 26.1414 32.032 25.8102 32.0195C25.4789 32.007 25.182 31.8695 24.9195 31.607L21.807 28.5133C21.5445 28.2573 21.4133 27.9635 21.4133 27.632C21.4133 27.3005 21.5445 27.0068 21.807 26.7508C22.0673 26.4883 22.3635 26.357 22.6958 26.357C23.0283 26.357 23.3258 26.4883 23.5883 26.7508L25.7847 28.9633ZM12.2554 19.757C12.5982 19.757 12.8945 19.6347 13.1445 19.3899C13.3945 19.1452 13.5195 18.8514 13.5195 18.5087C13.5195 18.1659 13.3972 17.8695 13.1524 17.6195C12.9077 17.3695 12.6139 17.2445 12.2712 17.2445C11.9284 17.2445 11.632 17.3669 11.382 17.6117C11.132 17.8564 11.007 18.1502 11.007 18.4929C11.007 18.8357 11.1294 19.132 11.3742 19.382C11.6189 19.632 11.9127 19.757 12.2554 19.757ZM12.2554 14.0195C12.5982 14.0195 12.8945 13.8972 13.1445 13.6524C13.3945 13.4077 13.5195 13.1139 13.5195 12.7712C13.5195 12.4284 13.3972 12.132 13.1524 11.882C12.9077 11.632 12.6139 11.507 12.2712 11.507C11.9284 11.507 11.632 11.6294 11.382 11.8742C11.132 12.1189 11.007 12.4127 11.007 12.7554C11.007 13.0982 11.1294 13.3945 11.3742 13.6445C11.6189 13.8945 11.9127 14.0195 12.2554 14.0195ZM23.757 19.7383C24.102 19.7383 24.3977 19.6159 24.6439 19.3712C24.8902 19.1264 25.0133 18.8327 25.0133 18.4899C25.0133 18.1472 24.8902 17.8508 24.6439 17.6008C24.3977 17.3508 24.102 17.2258 23.757 17.2258H17.4945C17.1495 17.2258 16.8539 17.3482 16.6077 17.5929C16.3614 17.8377 16.2383 18.1314 16.2383 18.4742C16.2383 18.8169 16.3614 19.1133 16.6077 19.3633C16.8539 19.6133 17.1495 19.7383 17.4945 19.7383H23.757ZM23.757 14.0383C24.102 14.0383 24.3977 13.9159 24.6439 13.6712C24.8902 13.4264 25.0133 13.1327 25.0133 12.7899C25.0133 12.4472 24.8902 12.1508 24.6439 11.9008C24.3977 11.6508 24.102 11.5258 23.757 11.5258H17.4945C17.1495 11.5258 16.8539 11.6482 16.6077 11.8929C16.3614 12.1377 16.2383 12.4314 16.2383 12.7742C16.2383 13.1169 16.3614 13.4133 16.6077 13.6633C16.8539 13.9133 17.1495 14.0383 17.4945 14.0383H23.757Z" fill="#3F2C93"/>
</svg>
