<svg width="36" height="37" viewBox="0 0 36 37" fill="none" xmlns="http://www.w3.org/2000/svg">
<path d="M16.4633 24.8922L21.8633 19.4922C22.1258 19.2297 22.4195 19.0984 22.7445 19.0984C23.0695 19.0984 23.3633 19.2297 23.6258 19.4922C23.8883 19.7547 24.0195 20.0422 24.0195 20.3547C24.0195 20.6672 23.8883 20.9547 23.6258 21.2172L17.3445 27.4984C17.0888 27.7609 16.7905 27.8922 16.4498 27.8922C16.1088 27.8922 15.807 27.7609 15.5445 27.4984L12.3758 24.3297C12.1133 24.0672 11.9883 23.7734 12.0008 23.4484C12.0133 23.1234 12.1508 22.8297 12.4133 22.5672C12.6758 22.3047 12.9695 22.1734 13.2945 22.1734C13.6195 22.1734 13.9133 22.3047 14.1758 22.5672L16.4633 24.8922ZM8.25078 32.5234C7.55978 32.5234 6.96828 32.2731 6.47628 31.7723C5.98428 31.2716 5.73828 30.6844 5.73828 30.0109V10.5109C5.73828 9.83744 5.98428 9.25031 6.47628 8.74956C6.96828 8.24881 7.55978 7.99844 8.25078 7.99844H11.1383V5.65469C11.1383 5.30969 11.2607 5.01406 11.5054 4.76781C11.7502 4.52156 12.0439 4.39844 12.3867 4.39844C12.7294 4.39844 13.0258 4.52156 13.2758 4.76781C13.5258 5.01406 13.6508 5.30969 13.6508 5.65469V7.99844H22.3508V5.65469C22.3508 5.30969 22.4732 5.01406 22.7179 4.76781C22.9627 4.52156 23.2564 4.39844 23.5992 4.39844C23.9419 4.39844 24.2383 4.52156 24.4883 4.76781C24.7383 5.01406 24.8633 5.30969 24.8633 5.65469V7.99844H27.7508C28.4418 7.99844 29.0333 8.24881 29.5253 8.74956C30.0173 9.25031 30.2633 9.83744 30.2633 10.5109V30.0109C30.2633 30.6844 30.0173 31.2716 29.5253 31.7723C29.0333 32.2731 28.4418 32.5234 27.7508 32.5234H8.25078ZM8.25078 30.0109H27.7508V16.7734H8.25078V30.0109ZM8.25078 14.2609H27.7508V10.5109H8.25078V14.2609Z" fill="#3F2C93"/>
</svg>
