<svg width="14" height="7" viewBox="0 0 14 7" fill="none" xmlns="http://www.w3.org/2000/svg">
<path d="M5.19379 0.881184C3.93998 -0.319941 1.95086 -0.276687 0.750288 0.977119L0.661561 1.06917C0.365439 1.3786 0.145289 1.73295 0 2.10893L4.58435 5.91249C4.80506 5.77552 5.01356 5.61304 5.201 5.41729L5.28972 5.32468C7.02764 3.51024 5.8864 1.54441 5.19379 0.881184Z" fill="white"/>
<path d="M10.1246 0C8.37056 0 6.94873 1.42183 6.94873 3.17583C6.94873 4.92983 8.37056 6.35166 10.1246 6.35166C11.8786 6.35166 13.3004 4.92983 13.3004 3.17583C13.3004 1.42183 11.8786 0 10.1246 0ZM11.1909 3.63166L11.9756 4.91874C11.9379 4.95866 11.8991 4.99748 11.8591 5.03519L10.5721 4.25052L10.2172 5.71561C10.19 5.71671 10.1623 5.71782 10.1351 5.71782C10.1079 5.71782 10.0802 5.71671 10.053 5.71561L9.69812 4.25052L8.41104 5.03519C8.37112 4.99748 8.3323 4.95866 8.29459 4.91874L9.07926 3.63166L7.61417 3.27676C7.61306 3.24958 7.61196 3.22186 7.61196 3.19468C7.61196 3.16751 7.61306 3.13978 7.61417 3.11261L9.07926 2.75771L8.29459 1.47063C8.3323 1.4307 8.37112 1.39189 8.41104 1.35418L9.69812 2.13885L10.053 0.673762C10.0802 0.672652 10.1079 0.671544 10.1351 0.671544C10.1623 0.671544 10.19 0.672652 10.2172 0.673762L10.5721 2.13885L11.8591 1.35418C11.8991 1.39189 11.9379 1.4307 11.9756 1.47063L11.1909 2.75771L12.656 3.11261C12.6571 3.13978 12.6582 3.16751 12.6582 3.19468C12.6582 3.22186 12.6571 3.24958 12.656 3.27676L11.1909 3.63166Z" fill="white"/>
</svg>
