<svg width="39" height="9" viewBox="0 0 39 9" fill="none" xmlns="http://www.w3.org/2000/svg">
<path d="M7.06325 1.1997C5.35814 -0.433763 2.65305 -0.37494 1.02035 1.33016L0.899685 1.45535C0.496976 1.87616 0.197584 2.35805 0 2.86936L6.23445 8.04198C6.5346 7.85571 6.81815 7.63475 7.07305 7.36854L7.19371 7.2426C9.55718 4.77506 8.00516 2.10164 7.06325 1.1997Z" fill="white"/>
<path d="M13.7682 -9.15527e-05C11.3828 -9.15527e-05 9.44922 1.93352 9.44922 4.31885C9.44922 6.70419 11.3828 8.63779 13.7682 8.63779C16.1535 8.63779 18.0871 6.70419 18.0871 4.31885C18.0871 1.93352 16.1535 -9.15527e-05 13.7682 -9.15527e-05ZM15.2184 4.93875L16.2855 6.6891C16.2342 6.7434 16.1814 6.79619 16.1271 6.84747L14.3767 5.78037L13.8941 7.7728C13.8571 7.77431 13.8194 7.77581 13.7825 7.77581C13.7455 7.77581 13.7078 7.77431 13.6709 7.7728L13.1882 5.78037L11.4379 6.84747C11.3836 6.79619 11.3308 6.7434 11.2795 6.6891L12.3466 4.93875L10.3542 4.4561C10.3527 4.41915 10.3512 4.38144 10.3512 4.34449C10.3512 4.30754 10.3527 4.26983 10.3542 4.23288L12.3466 3.75023L11.2795 1.99988C11.3308 1.94558 11.3836 1.89279 11.4379 1.84151L13.1882 2.90861L13.6709 0.916185C13.7078 0.914676 13.7455 0.913169 13.7825 0.913169C13.8194 0.913169 13.8571 0.914676 13.8941 0.916185L14.3767 2.90861L16.1271 1.84151C16.1814 1.89279 16.2342 1.94558 16.2855 1.99988L15.2184 3.75023L17.2108 4.23288C17.2123 4.26983 17.2138 4.30754 17.2138 4.34449C17.2138 4.38144 17.2123 4.41915 17.2108 4.4561L15.2184 4.93875Z" fill="white"/>
<path d="M20.6191 5.21929H21.5716C21.6071 5.55111 21.776 5.74116 22.2209 5.74116C22.6161 5.74116 22.7994 5.59335 22.7994 5.3392C22.7994 5.08506 22.5806 4.97948 22.0512 4.9018C21.0701 4.75399 20.6893 4.4644 20.6893 3.75174C20.6893 2.98252 21.3951 2.60168 22.15 2.60168C22.5595 2.60168 22.9049 2.68615 23.1802 2.85583C23.4622 3.02551 23.6244 3.32113 23.6741 3.74496H22.736C22.6794 3.44179 22.503 3.30077 22.1576 3.30077C21.8122 3.30077 21.6357 3.45612 21.6357 3.68161C21.6357 3.9071 21.8122 4.00589 22.3484 4.08356C22.8069 4.14691 23.1598 4.26003 23.4072 4.41538C23.6545 4.57074 23.7812 4.846 23.7812 5.24116C23.7812 6.0315 23.1953 6.45457 22.2292 6.45457C21.2632 6.45457 20.6553 6.01038 20.6206 5.21929H20.6191Z" fill="white"/>
<path d="M24.1465 6.37682V2.68608H25.1623V3.25017C25.3531 2.90478 25.7551 2.60086 26.298 2.60086C26.7777 2.60086 27.1517 2.81277 27.3282 3.24263C27.6178 2.7909 28.1117 2.60086 28.5703 2.60086C28.9089 2.60086 29.1984 2.71398 29.4315 2.93947C29.6645 3.16495 29.7844 3.52543 29.7844 4.01185V6.37607H28.7686V4.12497C28.7686 3.65213 28.5567 3.44021 28.1826 3.44021C27.8086 3.44021 27.47 3.69436 27.47 4.19511V6.37532H26.4609V4.12422C26.4609 3.65137 26.249 3.43946 25.875 3.43946C25.5009 3.43946 25.1623 3.6936 25.1623 4.19435V6.37456H24.1465V6.37682Z" fill="white"/>
<path d="M30.1367 5.35353C30.1367 4.48552 30.9271 4.16803 32.056 4.16803H32.4723V4.02022C32.4723 3.5896 32.3313 3.343 31.8727 3.343C31.4708 3.343 31.28 3.54737 31.2445 3.86486H30.2777C30.3343 2.99007 31.0394 2.60168 31.9361 2.60168C32.3878 2.60168 32.7543 2.70726 33.0439 2.91239C33.3335 3.11676 33.4813 3.4697 33.4813 3.9712V6.37765H32.4866V5.93346C32.2822 6.22305 31.9429 6.45532 31.372 6.45532C30.7084 6.45532 30.1367 6.1235 30.1367 5.35428V5.35353ZM32.4723 5.08581V4.77511H32.0771C31.4844 4.77511 31.139 4.9018 31.139 5.29697C31.139 5.5579 31.3011 5.74116 31.6752 5.74116C32.1269 5.74116 32.4723 5.48701 32.4723 5.08506V5.08581Z" fill="white"/>
<path d="M34.0742 6.37685V2.68611H35.09V3.39198C35.3231 2.89123 35.6971 2.63709 36.2899 2.62955V3.58202C35.535 3.58202 35.09 3.82184 35.09 4.52771V6.37685H34.0742Z" fill="white"/>
<path d="M36.8693 5.28333V3.41382H36.3965V2.68683H36.8693V1.88971H37.8851V2.68683H38.6612V3.41382H37.8851V5.19207C37.8851 5.48166 38.033 5.62947 38.2946 5.62947C38.4425 5.62947 38.5699 5.60082 38.683 5.56613V6.35646C38.5352 6.39191 38.3376 6.44847 38.0548 6.44847C37.2932 6.44847 36.8693 6.04651 36.8693 5.28408V5.28333Z" fill="white"/>
</svg>
