<svg width="39" height="9" viewBox="0 0 39 9" fill="none" xmlns="http://www.w3.org/2000/svg">
<path d="M27.8974 1.1273C26.2955 -0.407379 23.753 -0.352339 22.219 1.25025L22.1054 1.36819C21.7265 1.76347 21.4456 2.21666 21.2598 2.69701L27.1183 7.55766C27.3999 7.38253 27.6673 7.17524 27.9067 6.92506L28.0204 6.8064C30.2413 4.48758 28.7831 1.97577 27.8974 1.12802V1.1273Z" fill="white"/>
<path d="M34.1993 0C31.9577 0 30.1406 1.81703 30.1406 4.05865C30.1406 6.30026 31.9577 8.11729 34.1993 8.11729C36.4409 8.11729 38.2579 6.30026 38.2579 4.05865C38.2579 1.81703 36.4409 0 34.1993 0ZM35.5617 4.64049L36.5646 6.28525C36.5167 6.33672 36.4673 6.38604 36.4159 6.43393L34.7711 5.43107L34.3179 7.30313C34.2829 7.30456 34.2479 7.30599 34.2129 7.30599C34.1778 7.30599 34.1428 7.30456 34.1078 7.30313L33.6546 5.43107L32.0098 6.43393C31.9584 6.38604 31.909 6.33672 31.8612 6.28525L32.864 4.64049L30.992 4.18731C30.9905 4.15228 30.9891 4.11726 30.9891 4.08223C30.9891 4.04721 30.9905 4.01218 30.992 3.97716L32.864 3.52397L31.8612 1.87921C31.909 1.82775 31.9584 1.77843 32.0098 1.73054L33.6546 2.7334L34.1078 0.861336C34.1428 0.859907 34.1778 0.858477 34.2129 0.858477C34.2479 0.858477 34.2829 0.859907 34.3179 0.861336L34.7711 2.7334L36.4159 1.73054C36.4673 1.77843 36.5167 1.82775 36.5646 1.87921L35.5617 3.52397L37.4338 3.97716C37.4352 4.01218 37.4366 4.04721 37.4366 4.08223C37.4366 4.11726 37.4352 4.15228 37.4338 4.18731L35.5617 4.64049Z" fill="white"/>
<path d="M6.89155 4.27517L6.77575 3.59753L6.02878 3.72048L6.19033 4.69833C6.21606 4.84701 6.23679 4.99211 6.2518 5.13364C6.26752 5.27517 6.27467 5.40956 6.27467 5.53822C6.27968 5.96424 6.17674 6.28948 5.96659 6.5125C5.75573 6.73552 5.40476 6.84774 4.91155 6.84774H4.61133V7.85633H4.91941C5.27895 7.85633 5.59061 7.79843 5.85508 7.68334C6.11956 7.56755 6.33758 7.406 6.50984 7.19799C6.6814 6.98999 6.80863 6.74338 6.89083 6.45889C6.97303 6.17368 7.01378 5.85917 7.01378 5.51535C7.01378 5.35595 7.00377 5.17153 6.98304 4.96066C6.96231 4.75051 6.93158 4.52177 6.89083 4.27517H6.89155Z" fill="white"/>
<path d="M18.8156 3.75919L18.762 3.36605L18.0071 3.48184L18.0765 3.88213C18.1279 4.18521 18.1537 4.41895 18.1537 4.58264C18.1537 4.91145 18.02 5.07585 17.7534 5.07585H17.6533C17.5096 5.07585 17.3988 5.02439 17.3224 4.92217C17.2452 4.81924 17.2066 4.65269 17.2066 4.42181V3.90572H16.4517V4.41823C16.4517 4.66842 16.4003 4.84283 16.298 4.94218C16.1951 5.04154 16.0307 5.09158 15.8048 5.09158C15.6612 5.09158 15.5175 5.07228 15.3738 5.03368C15.2301 4.99508 15.0865 4.94004 14.9428 4.86784L15.2659 4.22881L14.5961 3.90572L14.288 4.53689C14.2466 4.6241 14.2022 4.69772 14.1529 4.75634C14.1043 4.81566 14.0478 4.86284 13.9835 4.89858C13.9192 4.93432 13.8434 4.96005 13.7562 4.97578C13.6711 4.99079 13.5732 4.99794 13.4639 4.99865C13.2973 4.99794 13.1722 4.96649 13.0886 4.90287C13.0042 4.83854 12.9256 4.70916 12.8534 4.51402L12.2601 2.92787H11.3666L10.9049 3.20522C10.1808 3.63124 9.81908 4.13946 9.81908 4.72989C9.81908 4.76563 9.82051 4.79851 9.82265 4.83068C9.82337 4.84712 9.82766 4.89787 9.83909 4.96649C9.77333 4.97864 9.70543 4.98865 9.63395 4.99222C9.53602 4.99722 9.41307 5.00008 9.26439 5.00008H9.02565C8.79477 5.00008 8.63179 4.96148 8.53672 4.88429C8.44166 4.80709 8.39448 4.65841 8.39448 4.43753V0.308838H7.57031V4.54475C7.57031 5.0687 7.68968 5.44326 7.92843 5.66914C8.16717 5.89502 8.54101 6.00795 9.04924 6.00795H9.0571C9.48884 6.00795 9.77405 5.7878 9.91701 5.35248H9.96704C10.0621 5.5369 10.2051 5.69058 10.4009 5.80781C10.6239 5.94148 10.9156 6.00795 11.2751 6.00795H11.466C11.4746 6.00795 11.4831 6.00795 11.4917 6.00795H11.4996C11.882 6.00795 12.1493 5.83497 12.3052 5.4933H12.3466C12.4617 5.65985 12.5925 5.78565 12.7419 5.86571C12.9192 5.96078 13.0829 6.00295 13.3909 6.00295C13.699 6.00295 13.7255 5.98365 13.9256 5.93433C14.1258 5.88572 14.303 5.78136 14.4574 5.62268L14.6418 5.73061C14.8627 5.86428 15.05 5.95935 15.2044 6.01582C15.3581 6.07229 15.5096 6.10088 15.659 6.10088C15.8899 6.10088 16.0772 6.01939 16.2216 5.85642C16.3652 5.69344 16.4896 5.44612 16.5311 5.11517H16.5625C16.624 5.44612 16.7291 5.69344 16.9113 5.85642C17.0936 6.01939 17.3595 6.10088 17.7083 6.10088C18.4939 6.10088 18.8863 5.59551 18.8863 4.58335C18.8863 4.34175 18.8635 4.06727 18.817 3.75919H18.8156ZM10.6311 4.31387C10.7412 4.21666 10.8991 4.12374 11.105 4.03653L11.644 3.79779L12.095 4.99008C12.0886 4.99008 12.0829 4.99151 12.0764 4.99151C11.9928 4.99579 11.8891 4.99865 11.7683 4.99865H11.0514C10.8713 4.99865 10.729 4.97078 10.6239 4.91359C10.5189 4.85712 10.466 4.76205 10.466 4.62839C10.466 4.51545 10.521 4.41037 10.6318 4.31244L10.6311 4.31387Z" fill="white"/>
<path d="M2.11454 3.19743C2.37627 3.19743 2.58845 2.98525 2.58845 2.72352C2.58845 2.46178 2.37627 2.2496 2.11454 2.2496C1.8528 2.2496 1.64062 2.46178 1.64062 2.72352C1.64062 2.98525 1.8528 3.19743 2.11454 3.19743Z" fill="white"/>
<path d="M3.26102 3.19743C3.52276 3.19743 3.73494 2.98525 3.73494 2.72352C3.73494 2.46178 3.52276 2.2496 3.26102 2.2496C2.99929 2.2496 2.78711 2.46178 2.78711 2.72352C2.78711 2.98525 2.99929 3.19743 3.26102 3.19743Z" fill="white"/>
<path d="M5.22091 5.15448C5.32385 4.93361 5.3746 4.66413 5.3746 4.34604C5.3746 4.14089 5.34743 3.91859 5.29382 3.67985C5.24021 3.4411 5.16159 3.19879 5.05937 2.95218L4.39675 3.14446C4.48896 3.3346 4.56115 3.51401 4.61262 3.68342C4.66408 3.85283 4.68982 4.00437 4.68982 4.13804C4.68982 4.29172 4.65765 4.42181 4.59332 4.52689C4.52899 4.63196 4.42534 4.71702 4.28166 4.78136C4.13799 4.84569 3.95214 4.89287 3.7234 4.9236C3.49467 4.95434 3.21661 4.97006 2.8878 4.97006H2.4868C2.15799 4.97006 1.87993 4.95434 1.65119 4.9236C1.42246 4.89287 1.23661 4.84569 1.09293 4.78136C0.949257 4.71702 0.844896 4.63268 0.781279 4.52689C0.716946 4.42181 0.68478 4.29172 0.68478 4.13804C0.68478 4.00437 0.710513 3.85283 0.761979 3.68342C0.813445 3.51401 0.884925 3.3346 0.977849 3.14446L0.315228 2.95218C0.212296 3.19879 0.134383 3.4411 0.0807726 3.67985C0.0271625 3.91859 0 4.14089 0 4.34604C0 4.66413 0.0514658 4.93432 0.153682 5.15448C0.256614 5.37536 0.450325 5.59194 0.694073 5.70846C0.980708 5.8457 1.71338 5.98222 2.68766 5.98222C3.66193 5.98222 4.3946 5.8457 4.68124 5.70846C4.92499 5.59194 5.11941 5.37464 5.22163 5.15448H5.22091Z" fill="white"/>
</svg>
