<svg width="114" height="24" viewBox="0 0 114 24" fill="none" xmlns="http://www.w3.org/2000/svg">
<path d="M85.9885 4.24525C81.7836 0.216342 75.1095 0.363026 71.0854 4.56796L70.7872 4.87599C69.7946 5.91256 69.0563 7.1007 68.5674 8.36218L83.9447 21.1188C84.683 20.6592 85.3871 20.1164 86.013 19.4564L86.3112 19.1434C92.1394 13.0561 88.311 6.46507 85.9885 4.24036V4.24525Z" fill="white"/>
<path d="M102.525 1.28125C96.6426 1.28125 91.8705 6.04847 91.8705 11.9354C91.8705 17.8223 96.6377 22.5895 102.525 22.5895C108.412 22.5895 113.179 17.8223 113.179 11.9354C113.179 6.04847 108.407 1.28125 102.525 1.28125ZM106.099 13.4609L108.729 17.7783C108.602 17.9103 108.475 18.0423 108.338 18.1694L104.021 15.5389L102.833 20.4528C102.74 20.4528 102.652 20.4577 102.559 20.4577C102.466 20.4577 102.373 20.4577 102.285 20.4528L101.097 15.5389L96.7795 18.1694C96.6475 18.0423 96.5155 17.9152 96.3883 17.7783L99.0189 13.4609L94.105 12.2727C94.105 12.1798 94.1001 12.0918 94.1001 11.9989C94.1001 11.906 94.1001 11.8131 94.105 11.7251L99.0189 10.537L96.3883 6.2196C96.5155 6.08758 96.6426 5.95557 96.7795 5.82844L101.097 8.45897L102.285 3.54507C102.378 3.54507 102.466 3.54018 102.559 3.54018C102.652 3.54018 102.745 3.54018 102.833 3.54507L104.021 8.45897L108.338 5.82844C108.47 5.95557 108.602 6.0827 108.729 6.2196L106.099 10.537L111.013 11.7251C111.013 11.818 111.018 11.906 111.018 11.9989C111.018 12.0918 111.018 12.1847 111.013 12.2727L106.099 13.4609Z" fill="white"/>
<path d="M30.8598 12.5024L30.5567 10.7227L28.596 11.0454L29.0214 13.6123C29.0898 14.0035 29.1436 14.3849 29.1827 14.7565C29.2218 15.1281 29.2414 15.4801 29.2414 15.8175C29.2561 16.9372 28.9871 17.7879 28.4346 18.3747C27.8821 18.9614 26.958 19.2548 25.6672 19.2548H24.88V21.9048H25.6868C26.6304 21.9048 27.447 21.7533 28.1413 21.4501C28.8356 21.147 29.4076 20.7216 29.8575 20.1789C30.3073 19.6312 30.6398 18.9858 30.8598 18.2377C31.0749 17.4897 31.1825 16.6633 31.1825 15.7637C31.1825 15.3481 31.1532 14.8591 31.0994 14.3066C31.0456 13.7541 30.9625 13.1527 30.8549 12.5073L30.8598 12.5024Z" fill="white"/>
<path d="M62.1572 11.149L62.0154 10.1173L60.0351 10.4205L60.2161 11.4717C60.353 12.2687 60.4165 12.8799 60.4165 13.3102C60.4165 14.1707 60.0645 14.6059 59.3653 14.6059H59.1013C58.7248 14.6059 58.4363 14.469 58.2309 14.2C58.0305 13.9311 57.9278 13.4911 57.9278 12.8848V11.5304H55.9476V12.875C55.9476 13.5302 55.8107 13.9898 55.5417 14.2489C55.2728 14.5081 54.8425 14.6401 54.246 14.6401C53.8695 14.6401 53.4931 14.5912 53.1117 14.4885C52.7352 14.3858 52.3587 14.244 51.9773 14.0534L52.8281 12.3763L51.0679 11.5255L50.2611 13.183C50.1536 13.4128 50.0362 13.6035 49.9091 13.76C49.782 13.9165 49.6304 14.0387 49.4641 14.1316C49.293 14.2245 49.0974 14.2929 48.8676 14.3321C48.6427 14.3712 48.3885 14.3907 48.1 14.3907C47.6648 14.3907 47.3323 14.3076 47.1123 14.1365C46.8923 13.9702 46.682 13.628 46.4962 13.1146L44.9414 8.94877H42.5945L41.3819 9.6773C39.4799 10.797 38.5313 12.1318 38.5313 13.6818C38.5313 13.7747 38.5313 13.8627 38.5411 13.9458C38.5411 13.9898 38.5558 14.1218 38.5851 14.3027C38.414 14.3369 38.2331 14.3614 38.0473 14.3712C37.793 14.3858 37.4654 14.3907 37.0791 14.3907H36.4533C35.847 14.3907 35.4167 14.2881 35.1723 14.0876C34.9229 13.8871 34.8007 13.496 34.8007 12.9141V2.09375H32.6395V13.2124C32.6395 14.5863 32.9525 15.5691 33.5783 16.1656C34.2042 16.7572 35.1869 17.0555 36.5169 17.0555H36.5364C37.6708 17.0555 38.4189 16.4785 38.7953 15.3344H38.9274C39.1767 15.8185 39.5532 16.2194 40.0666 16.5274C40.6533 16.8795 41.4161 17.0506 42.3598 17.0506H42.8585C42.8585 17.0506 42.9025 17.0506 42.9269 17.0506H42.9465C43.9488 17.0506 44.6529 16.5959 45.0636 15.7011H45.1712C45.4743 16.1363 45.8166 16.4688 46.2078 16.679C46.6723 16.9284 47.1025 17.0408 47.9093 17.0408C48.7161 17.0408 48.7894 16.9919 49.3126 16.8599C49.8406 16.7328 50.3051 16.459 50.7061 16.0434L51.1901 16.327C51.772 16.679 52.2609 16.9284 52.6667 17.075C53.0726 17.2217 53.4686 17.2951 53.8598 17.2951C54.4661 17.2951 54.9599 17.0799 55.3364 16.6546C55.7129 16.2292 56.0405 15.5789 56.148 14.7085H56.2311C56.3925 15.5789 56.6663 16.2243 57.1455 16.6546C57.6246 17.0799 58.3189 17.2951 59.2382 17.2951C61.3015 17.2951 62.3283 15.97 62.3283 13.3151C62.3283 12.6794 62.2696 11.9607 62.1474 11.1539L62.1572 11.149ZM40.6778 12.6061C40.9663 12.3518 41.3819 12.1074 41.9197 11.8776L43.3328 11.2517L44.516 14.381C44.516 14.381 44.4818 14.381 44.4671 14.381C44.2471 14.3907 43.9782 14.4005 43.6604 14.4005H41.7779C41.3036 14.4005 40.932 14.3272 40.6582 14.1805C40.3795 14.0338 40.2426 13.7844 40.2426 13.4324C40.2426 13.1341 40.3893 12.8603 40.6778 12.6012V12.6061Z" fill="white"/>
<path d="M18.3183 9.67134C19.0042 9.67134 19.5603 9.11532 19.5603 8.42942C19.5603 7.74353 19.0042 7.1875 18.3183 7.1875C17.6324 7.1875 17.0764 7.74353 17.0764 8.42942C17.0764 9.11532 17.6324 9.67134 18.3183 9.67134Z" fill="white"/>
<path d="M21.3302 9.67134C22.0161 9.67134 22.5721 9.11532 22.5721 8.42942C22.5721 7.74353 22.0161 7.1875 21.3302 7.1875C20.6443 7.1875 20.0883 7.74353 20.0883 8.42942C20.0883 9.11532 20.6443 9.67134 21.3302 9.67134Z" fill="white"/>
<path d="M26.4739 14.8116C26.7429 14.2346 26.8798 13.5256 26.8798 12.6895C26.8798 12.1517 26.8113 11.5699 26.6695 10.9391C26.5277 10.3133 26.3224 9.67764 26.0535 9.02734L24.3128 9.53096C24.5573 10.0297 24.7431 10.4991 24.88 10.944C25.0169 11.389 25.0805 11.785 25.0805 12.137C25.0805 12.5429 24.9973 12.8802 24.8262 13.1589C24.66 13.4376 24.3862 13.6577 24.0097 13.8239C23.6332 13.995 23.1442 14.1173 22.5428 14.1955C21.9414 14.2786 21.2129 14.3177 20.3475 14.3177H19.2962C18.4357 14.3177 17.7023 14.2786 17.1009 14.1955C16.4995 14.1124 16.0105 13.9901 15.634 13.8239C15.2575 13.6577 14.9837 13.4327 14.8175 13.1589C14.6464 12.8851 14.5632 12.5429 14.5632 12.137C14.5632 11.785 14.6317 11.389 14.7637 10.944C14.8957 10.4991 15.0864 10.0297 15.3309 9.53096L13.5902 9.02734C13.3213 9.67275 13.116 10.3133 12.9742 10.9391C12.8324 11.565 12.7639 12.1468 12.7639 12.6895C12.7639 13.5256 12.8959 14.2346 13.1697 14.8116C13.4387 15.3934 13.9472 15.9606 14.5877 16.2686C15.3407 16.6304 17.2622 16.9874 19.8194 16.9874C22.3766 16.9874 24.2981 16.6304 25.0511 16.2686C25.6916 15.9606 26.2001 15.3934 26.4691 14.8116H26.4739Z" fill="white"/>
<path d="M6.67163 17.1458L6.67163 9H4.53494V17.1458H6.67163Z" fill="white"/>
<path d="M1.53276 14.1406L9.67859 14.1406V12.0039H1.53276V14.1406Z" fill="white"/>
</svg>
