<svg width="108" height="24" viewBox="0 0 108 24" fill="none" xmlns="http://www.w3.org/2000/svg">
<g clip-path="url(#clip0_19123_27722)">
<path d="M18.2819 4.00627C14.0107 -0.0861547 7.2363 0.0628409 3.14388 4.33406L2.84093 4.64695C1.83272 5.69985 1.08277 6.90672 0.586121 8.18808L16.2059 21.1458C16.9558 20.6789 17.671 20.1276 18.3067 19.4571L18.6097 19.1393C24.5298 12.956 20.641 6.26107 18.2819 4.0013V4.00627Z" fill="white"/>
<path d="M35.0787 1C29.1039 1 24.2566 5.84237 24.2566 11.8221C24.2566 17.8018 29.099 22.6441 35.0787 22.6441C41.0584 22.6441 45.9007 17.8018 45.9007 11.8221C45.9007 5.84237 41.0534 1 35.0787 1ZM38.7092 13.3716L41.3812 17.7571C41.2521 17.8912 41.1229 18.0253 40.9839 18.1544L36.5984 15.4824L35.3916 20.4738C35.2972 20.4738 35.2078 20.4787 35.1134 20.4787C35.0191 20.4787 34.9247 20.4787 34.8353 20.4738L33.6284 15.4824L29.243 18.1544C29.1089 18.0253 28.9748 17.8961 28.8457 17.7571L31.5177 13.3716L26.5263 12.1648C26.5263 12.0704 26.5213 11.981 26.5213 11.8866C26.5213 11.7923 26.5213 11.6979 26.5263 11.6085L31.5177 10.4016L28.8457 6.0162C28.9748 5.8821 29.1039 5.748 29.243 5.61887L33.6284 8.29087L34.8353 3.2995C34.9297 3.2995 35.0191 3.29454 35.1134 3.29454C35.2078 3.29454 35.3022 3.29454 35.3916 3.2995L36.5984 8.29087L40.9839 5.61887C41.118 5.748 41.2521 5.87713 41.3812 6.0162L38.7092 10.4016L43.7006 11.6085C43.7006 11.7029 43.7055 11.7923 43.7055 11.8866C43.7055 11.981 43.7055 12.0754 43.7006 12.1648L38.7092 13.3716Z" fill="white"/>
<path d="M52.243 14.0764H54.6319C54.7213 14.9058 55.1434 15.3826 56.2559 15.3826C57.2443 15.3826 57.7062 15.0101 57.7062 14.3744C57.7062 13.7387 57.1598 13.4705 55.8338 13.2768C53.3753 12.9043 52.4218 12.1792 52.4218 10.3962C52.4218 8.4692 54.1899 7.51562 56.0821 7.51562C57.1052 7.51562 57.9744 7.72919 58.6647 8.15134C59.37 8.5735 59.7772 9.31848 59.9014 10.3763H57.5522C57.4131 9.61647 56.9711 9.26384 56.102 9.26384C55.2328 9.26384 54.7958 9.65123 54.7958 10.2174C54.7958 10.7836 55.2378 11.0319 56.5788 11.2256C57.726 11.3846 58.6101 11.6676 59.2309 12.055C59.8517 12.4424 60.1696 13.1328 60.1696 14.1211C60.1696 16.1028 58.7044 17.1606 56.2808 17.1606C53.8571 17.1606 52.3373 16.0481 52.2529 14.0665L52.243 14.0764Z" fill="white"/>
<path d="M61.0785 16.9797V7.73203H63.6263V9.14749C64.1031 8.28332 65.1113 7.52344 66.4721 7.52344C67.674 7.52344 68.6127 8.05486 69.0547 9.13259C69.7798 8.00022 71.0165 7.52344 72.1638 7.52344C73.0131 7.52344 73.7382 7.80653 74.3193 8.37271C74.9003 8.9389 75.2033 9.83784 75.2033 11.0596V16.9797H72.6555V11.3427C72.6555 10.1607 72.124 9.62925 71.1903 9.62925C70.2566 9.62925 69.4074 10.265 69.4074 11.5215V16.9847H66.8794V11.3477C66.8794 10.1656 66.348 9.63421 65.4143 9.63421C64.4806 9.63421 63.6313 10.2699 63.6313 11.5265V16.9896H61.0835L61.0785 16.9797Z" fill="white"/>
<path d="M76.0873 14.4141C76.0873 12.2388 78.0689 11.4441 80.8949 11.4441H81.9379V11.0717C81.9379 9.99392 81.5852 9.37311 80.433 9.37311C79.4248 9.37311 78.948 9.88466 78.8586 10.6793H76.435C76.574 8.48907 78.3421 7.51562 80.587 7.51562C81.7193 7.51562 82.6382 7.77885 83.3633 8.29537C84.0884 8.80692 84.4609 9.69096 84.4609 10.9475V16.9769H81.9677V15.8644C81.4561 16.5895 80.6068 17.1706 79.1765 17.1706C77.5127 17.1706 76.0823 16.3411 76.0823 14.4141H76.0873ZM81.9379 13.7437V12.9639H80.9495C79.4645 12.9639 78.6004 13.2818 78.6004 14.2701C78.6004 14.9257 79.0076 15.3826 79.9413 15.3826C81.0737 15.3826 81.9379 14.7469 81.9379 13.7387V13.7437Z" fill="white"/>
<path d="M85.9509 16.9766V7.72891H88.4987V9.49699C89.0798 8.24046 90.0185 7.60474 91.5035 7.58984V9.97874C89.6112 9.97874 88.4987 10.5797 88.4987 12.3478V16.9816H85.9509V16.9766Z" fill="white"/>
<path d="M92.9487 14.2371V9.55364H91.7667V7.73092H92.9487V5.73438H95.4965V7.73092H97.4434V9.55364H95.4965V14.0086C95.4965 14.7337 95.869 15.1062 96.5196 15.1062C96.8921 15.1062 97.21 15.0367 97.4931 14.9473V16.9289C97.1206 17.0183 96.6289 17.1574 95.9187 17.1574C94.0115 17.1574 92.9487 16.1492 92.9487 14.242V14.2371Z" fill="white"/>
<path d="M104.014 16.0047V7.73047H101.844V16.0047H104.014Z" fill="white"/>
<path d="M98.7941 12.9531L107.068 12.9531V10.7828H98.7941V12.9531Z" fill="white"/>
</g>
<defs>
<clipPath id="clip0_19123_27722">
<rect width="107.883" height="23" fill="white" transform="translate(0 0.324219)"/>
</clipPath>
</defs>
</svg>
