<svg width="24" height="25" viewBox="0 0 24 25" fill="none" xmlns="http://www.w3.org/2000/svg">
<path fill-rule="evenodd" clip-rule="evenodd" d="M16 5.57812L19.84 5.57812C20.89 5.57812 21.75 6.43812 21.75 7.48813V8.90813V11.3281V13.3281V17.1681C21.75 18.2181 20.89 19.0781 19.84 19.0781H19H16H8H4.16C3.11 19.0781 2.25 18.2281 2.25 17.1681V14.3281L2.25 13.3281V11.3281V9.32813V7.48813C2.25 6.43812 3.1 5.57812 4.16 5.57812H8H16ZM20.25 17.1681V13.3281V12.1181H3.75V13.3281V14.3281V17.1681C3.75 17.3881 3.93 17.5781 4.16 17.5781H8H16H19H19.84C20.06 17.5781 20.25 17.3981 20.25 17.1681ZM20.25 9.03813V8.90813V7.48813C20.25 7.26813 20.07 7.07813 19.84 7.07813H16H8H4.16C3.94 7.07813 3.75 7.25813 3.75 7.48813V9.03813H20.25ZM12 15.8276H5.50001C5.09001 15.8276 4.75001 15.4876 4.75001 15.0776C4.75001 14.6676 5.09001 14.3276 5.50001 14.3276H12C12.41 14.3276 12.75 14.6676 12.75 15.0776C12.75 15.4876 12.41 15.8276 12 15.8276Z" fill="#863784"/>
</svg>
