<svg width="24" height="25" viewBox="0 0 24 25" fill="none" xmlns="http://www.w3.org/2000/svg">
<path fill-rule="evenodd" clip-rule="evenodd" d="M20.01 9.00449C21.15 9.96449 21.75 11.1045 21.75 12.3245C21.75 13.5445 21.15 14.6845 20.02 15.6445C20.15 17.1345 19.77 18.3645 18.91 19.2245C18.05 20.0845 16.81 20.4545 15.33 20.3345C14.37 21.4745 13.23 22.0745 12.01 22.0745C10.79 22.0745 9.65 21.4745 8.69 20.3345C7.2 20.4645 5.97 20.0845 5.11 19.2245C4.25 18.3645 3.86 17.1345 3.99 15.6445C2.85 14.6845 2.25 13.5445 2.25 12.3245C2.25 11.1045 2.85 9.96449 3.99 9.00449C3.86 7.52449 4.25 6.28449 5.11 5.43449C5.97 4.57449 7.2 4.19449 8.69 4.31449C10.61 2.03449 13.4 2.03449 15.32 4.31449C16.81 4.18449 18.04 4.56449 18.9 5.42449C19.76 6.28449 20.14 7.51449 20.01 9.00449ZM18.48 15.4245C18.44 15.1545 18.55 14.8745 18.77 14.7145C19.44 14.2045 20.25 13.4045 20.25 12.3345C20.25 11.2645 19.45 10.4445 18.77 9.94449C18.55 9.78449 18.44 9.50449 18.48 9.23449C18.6 8.39449 18.59 7.24449 17.84 6.49449C17.09 5.74449 15.93 5.73449 15.1 5.85449C14.83 5.89449 14.56 5.78449 14.39 5.56449C13.88 4.89449 13.06 4.08449 12 4.08449C10.94 4.08449 10.11 4.88449 9.61 5.56449C9.45 5.78449 9.18 5.89449 8.9 5.85449C8.07 5.72449 6.92 5.74449 6.17 6.49449C5.42 7.24449 5.4 8.39449 5.53 9.22449C5.57 9.50449 5.45 9.77449 5.23 9.93449C4.56 10.4445 3.75 11.2645 3.75 12.3245C3.75 13.3845 4.55 14.2145 5.23 14.7145C5.45 14.8845 5.56 15.1545 5.52 15.4245C5.4 16.2645 5.41 17.4145 6.16 18.1645C6.92 18.9145 8.07 18.9245 8.9 18.8045C8.94 18.7945 8.97 18.7945 9.01 18.7945C9.24 18.7945 9.47 18.9045 9.61 19.0945C10.12 19.7645 10.94 20.5745 12 20.5745C13.06 20.5745 13.89 19.7745 14.39 19.0945C14.55 18.8745 14.82 18.7645 15.1 18.8045C15.94 18.9245 17.09 18.9145 17.84 18.1645C18.59 17.4045 18.6 16.2545 18.48 15.4245ZM11.0002 9.82452C11.0002 10.653 10.3287 11.3245 9.50024 11.3245C8.67182 11.3245 8.00024 10.653 8.00024 9.82452C8.00024 8.9961 8.67182 8.32452 9.50024 8.32452C10.3287 8.32452 11.0002 8.9961 11.0002 9.82452ZM14.4704 8.79471C14.7604 8.50471 15.2404 8.50471 15.5304 8.79471C15.8204 9.08471 15.8204 9.56471 15.5304 9.85471L9.53043 15.8547C9.38043 16.0047 9.19043 16.0747 9.00043 16.0747C8.81043 16.0747 8.62043 16.0047 8.47043 15.8547C8.18043 15.5647 8.18043 15.0847 8.47043 14.7947L14.4704 8.79471ZM14.499 16.3244C15.3274 16.3244 15.999 15.6528 15.999 14.8244C15.999 13.996 15.3274 13.3244 14.499 13.3244C13.6706 13.3244 12.999 13.996 12.999 14.8244C12.999 15.6528 13.6706 16.3244 14.499 16.3244Z" fill="#863784"/>
</svg>
