<svg width="24" height="25" viewBox="0 0 24 25" fill="none" xmlns="http://www.w3.org/2000/svg">
<path fill-rule="evenodd" clip-rule="evenodd" d="M20.74 22.0238C20.735 22.0363 20.73 22.0488 20.73 22.0638C20.73 22.1138 20.72 22.1638 20.7 22.2038C20.68 22.2538 20.66 22.2938 20.63 22.3438C20.6208 22.3576 20.6159 22.3713 20.6112 22.3841C20.6058 22.3992 20.6008 22.413 20.59 22.4238C20.585 22.4288 20.5775 22.4338 20.57 22.4388C20.5625 22.4438 20.555 22.4488 20.55 22.4538C20.5 22.5138 20.44 22.5638 20.37 22.6038C20.35 22.6238 20.33 22.6438 20.3 22.6538C20.21 22.6938 20.1 22.7238 19.99 22.7238C19.9 22.7238 19.82 22.7038 19.73 22.6738C19.715 22.6688 19.7025 22.6613 19.69 22.6538C19.6775 22.6463 19.665 22.6388 19.65 22.6338C19.635 22.6238 19.6175 22.6163 19.6 22.6088C19.5825 22.6013 19.565 22.5938 19.55 22.5838L18.97 22.1538C18.29 21.6438 17.61 21.3438 16.96 21.2738C16.15 21.1838 15.35 21.3038 14.63 21.6238L13.61 22.0738C13.1 22.3038 12.55 22.3938 12 22.4138H11.99C11.46 22.4338 10.89 22.3038 10.38 22.0738L9.36 21.6238C8.64 21.3038 7.84 21.1838 7.04 21.2738C6.39 21.3438 5.71 21.6438 5.03 22.1538L4.45 22.5838C4.435 22.5938 4.4175 22.6013 4.4 22.6088C4.3825 22.6163 4.365 22.6238 4.35 22.6338C4.335 22.6388 4.3225 22.6463 4.31 22.6538C4.2975 22.6613 4.285 22.6688 4.27 22.6738C4.19 22.7038 4.1 22.7238 4.01 22.7238C3.9 22.7238 3.8 22.6938 3.7 22.6538C3.68877 22.6482 3.67754 22.6394 3.66453 22.6293C3.65438 22.6214 3.64315 22.6126 3.63 22.6038C3.56 22.5638 3.5 22.5138 3.45 22.4538C3.43 22.4438 3.42 22.4338 3.41 22.4238C3.39606 22.4029 3.38697 22.382 3.37936 22.3645C3.37606 22.3569 3.37303 22.3499 3.37 22.3438C3.34 22.2938 3.32 22.2538 3.3 22.2038C3.28667 22.1705 3.28222 22.1372 3.27778 22.1038C3.27556 22.0872 3.27333 22.0705 3.27 22.0538C3.26 22.0338 3.25 22.0038 3.25 21.9738V2.66383C3.25 2.64883 3.255 2.63633 3.26 2.62383C3.265 2.61133 3.27 2.59883 3.27 2.58383C3.27333 2.56716 3.27556 2.55049 3.27778 2.53383C3.28222 2.50049 3.28667 2.46716 3.3 2.43383C3.30624 2.40262 3.32027 2.37531 3.3348 2.34703C3.34355 2.33 3.35248 2.31262 3.36 2.29383C3.37 2.28383 3.375 2.27133 3.38 2.25883C3.385 2.24633 3.39 2.23383 3.4 2.22383C3.405 2.21383 3.4125 2.20883 3.42 2.20383C3.4275 2.19883 3.435 2.19383 3.44 2.18383C3.47 2.14383 3.51 2.11383 3.56 2.08383C3.59 2.05383 3.63 2.02383 3.67 2.00383C3.71 1.98383 3.75 1.97383 3.8 1.96383C3.81667 1.96049 3.83333 1.95605 3.85 1.95161C3.88333 1.94272 3.91667 1.93383 3.95 1.93383C3.96 1.93383 3.9675 1.93133 3.975 1.92883C3.9825 1.92633 3.99 1.92383 4 1.92383C4.015 1.92383 4.0275 1.92633 4.04 1.92883C4.0525 1.93133 4.065 1.93383 4.08 1.93383C4.09667 1.93716 4.11333 1.93938 4.13 1.94161C4.16333 1.94605 4.19667 1.95049 4.23 1.96383C4.28 1.98383 4.33 2.00383 4.37 2.03383C4.385 2.03883 4.3975 2.04383 4.41 2.04883C4.4225 2.05383 4.435 2.05883 4.45 2.06383L5.02 2.49383C5.71 3.00383 6.39 3.30383 7.04 3.37383C7.83 3.46383 8.64 3.34383 9.36 3.02383L10.36 2.58383C10.87 2.35383 11.43 2.27383 11.97 2.24383H11.98C12.52 2.22383 13.08 2.35383 13.59 2.58383L14.61 3.03383C15.34 3.35383 16.14 3.47383 16.94 3.38383C17.59 3.31383 18.27 3.01383 18.95 2.50383L19.53 2.07383C19.5509 2.05988 19.5718 2.0508 19.5894 2.04319C19.597 2.03988 19.6039 2.03686 19.61 2.03383C19.635 2.02383 19.6575 2.01383 19.68 2.00383C19.7025 1.99383 19.725 1.98383 19.75 1.97383C19.7833 1.96049 19.8167 1.95605 19.85 1.95161C19.8667 1.94938 19.8833 1.94716 19.9 1.94383L19.9177 1.93766C19.9388 1.93009 19.9563 1.92383 19.98 1.92383C19.99 1.92383 19.9975 1.92633 20.005 1.92883C20.0125 1.93133 20.02 1.93383 20.03 1.93383C20.09 1.93383 20.14 1.94383 20.19 1.96383C20.24 1.97383 20.28 1.98383 20.32 2.00383C20.3476 2.01764 20.3705 2.03621 20.3951 2.05626C20.4062 2.06525 20.4176 2.07454 20.43 2.08383C20.48 2.11383 20.52 2.14383 20.55 2.18383C20.557 2.19777 20.5688 2.20686 20.5787 2.21447C20.583 2.21777 20.587 2.2208 20.59 2.22383C20.6039 2.24474 20.613 2.26566 20.6206 2.28319L20.6207 2.28324L20.6207 2.28334C20.624 2.29089 20.627 2.29781 20.63 2.30383C20.66 2.35383 20.68 2.39383 20.7 2.44383C20.7133 2.47716 20.7178 2.51049 20.7222 2.54382C20.7244 2.56049 20.7267 2.57716 20.73 2.59383C20.74 2.61383 20.75 2.64383 20.75 2.67383V21.9838C20.75 21.9988 20.745 22.0113 20.74 22.0238ZM14.03 20.2538C15 19.8238 16.07 19.6638 17.13 19.7838C17.84 19.8638 18.55 20.1138 19.23 20.5338V4.11383C18.53 4.53383 17.82 4.78383 17.11 4.86383C16.88 4.89383 16.66 4.90383 16.43 4.90383C15.6 4.90383 14.77 4.73383 14.01 4.39383L12.99 3.94383C12.67 3.80383 12.29 3.71383 11.99 3.73383H11.98C11.64 3.73383 11.31 3.80383 10.99 3.94383L9.97 4.39383C9.21 4.73383 8.39 4.90383 7.55 4.90383C7.32 4.90383 7.1 4.89383 6.87 4.86383C6.16 4.78383 5.45 4.53383 4.75 4.11383V20.5338C5.45 20.1138 6.16 19.8638 6.87 19.7838C7.93 19.6638 9 19.8238 9.99 20.2538L11.01 20.7038C11.32 20.8438 11.66 20.9138 12 20.9138H12.01H12.02C12.36 20.9138 12.69 20.8438 13.01 20.7038L14.03 20.2538ZM8 7.22363H16C16.42 7.22363 16.75 7.56363 16.75 7.97363C16.75 8.38363 16.41 8.72363 16 8.72363H8C7.59 8.72363 7.25 8.38363 7.25 7.97363C7.25 7.56363 7.59 7.22363 8 7.22363ZM16 11.2236H8C7.59 11.2236 7.25 11.5636 7.25 11.9736C7.25 12.3836 7.59 12.7236 8 12.7236H16C16.41 12.7236 16.75 12.3836 16.75 11.9736C16.75 11.5636 16.42 11.2236 16 11.2236ZM8 15.2236H12C12.41 15.2236 12.75 15.5636 12.75 15.9736C12.75 16.3836 12.41 16.7236 12 16.7236H8C7.59 16.7236 7.25 16.3836 7.25 15.9736C7.25 15.5636 7.59 15.2236 8 15.2236Z" fill="#863784"/>
</svg>
