<svg width="24" height="25" viewBox="0 0 24 25" fill="none" xmlns="http://www.w3.org/2000/svg">
<g clip-path="url(#clip0_7414_10793)">
<path d="M7.90007 16.4256L2.73539 14.5225C2.59298 14.4699 2.4701 14.375 2.38332 14.2504C2.29653 14.1259 2.25 13.9777 2.25 13.8259C2.25 13.6741 2.29653 13.526 2.38332 13.4014C2.4701 13.2769 2.59298 13.1819 2.73539 13.1294L7.90007 11.2262L9.8032 6.06156C9.85577 5.91915 9.95072 5.79627 10.0753 5.70949C10.1998 5.6227 10.348 5.57617 10.4998 5.57617C10.6516 5.57617 10.7997 5.6227 10.9243 5.70949C11.0488 5.79627 11.1438 5.91915 11.1963 6.06156L13.0994 11.2262L18.2641 13.1294C18.4065 13.1819 18.5294 13.2769 18.6162 13.4014C18.703 13.526 18.7495 13.6741 18.7495 13.8259C18.7495 13.9777 18.703 14.1259 18.6162 14.2504C18.5294 14.375 18.4065 14.4699 18.2641 14.5225L13.0994 16.4256L11.1963 21.5903C11.1438 21.7327 11.0488 21.8556 10.9243 21.9424C10.7997 22.0292 10.6516 22.0757 10.4998 22.0757C10.348 22.0757 10.1998 22.0292 10.0753 21.9424C9.95072 21.8556 9.85577 21.7327 9.8032 21.5903L7.90007 16.4256Z" stroke="#9B499B" stroke-width="1.5" stroke-linecap="round" stroke-linejoin="round"/>
<path d="M16.5 1.82422V6.32422" stroke="#9B499B" stroke-width="1.5" stroke-linecap="round" stroke-linejoin="round"/>
<path d="M21 7.07617V10.0762" stroke="#9B499B" stroke-width="1.5" stroke-linecap="round" stroke-linejoin="round"/>
<path d="M14.25 4.07617H18.75" stroke="#9B499B" stroke-width="1.5" stroke-linecap="round" stroke-linejoin="round"/>
<path d="M19.5 8.57617H22.5" stroke="#9B499B" stroke-width="1.5" stroke-linecap="round" stroke-linejoin="round"/>
</g>
<defs>
<clipPath id="clip0_7414_10793">
<rect width="24" height="24" fill="white" transform="translate(0 0.324219)"/>
</clipPath>
</defs>
</svg>
