<svg width="24" height="25" viewBox="0 0 24 25" fill="none" xmlns="http://www.w3.org/2000/svg">
<path d="M17.0599 20.6845C16.9399 20.6845 16.8199 20.6545 16.7099 20.5945L11.9899 18.1145L7.26993 20.5945C7.01993 20.7245 6.70993 20.7045 6.47993 20.5345C6.24993 20.3645 6.12992 20.0845 6.17992 19.8045L7.07993 14.5445L3.25992 10.8245C3.05992 10.6245 2.97992 10.3245 3.06992 10.0545C3.15992 9.78445 3.38992 9.58445 3.67992 9.54445L8.95993 8.77445L11.3199 3.98445C11.4499 3.72445 11.7099 3.56445 11.9899 3.56445C12.2799 3.56445 12.5399 3.72445 12.6599 3.98445L15.0199 8.77445L20.2999 9.54445C20.5799 9.58445 20.8199 9.78445 20.9099 10.0545C20.9999 10.3245 20.9199 10.6245 20.7199 10.8245L16.8999 14.5445L17.7999 19.8045C17.8499 20.0845 17.7299 20.3745 17.4999 20.5345C17.3699 20.6345 17.2199 20.6845 17.0599 20.6845ZM5.38992 10.8145L8.40992 13.7545C8.58993 13.9245 8.66993 14.1745 8.62993 14.4145L7.91993 18.5645L11.6499 16.6045C11.8699 16.4845 12.1299 16.4845 12.3499 16.6045L16.0799 18.5645L15.3699 14.4145C15.3299 14.1745 15.4099 13.9245 15.5899 13.7545L18.6099 10.8145L14.4399 10.2045C14.1899 10.1645 13.9799 10.0145 13.8699 9.79445L12.0099 6.01445L10.1499 9.79445C10.0399 10.0145 9.82993 10.1745 9.57993 10.2045L5.38992 10.8145Z" fill="#863784"/>
</svg>
